<svg width="52" height="51" viewBox="0 0 52 51" fill="none" xmlns="http://www.w3.org/2000/svg">
<circle cx="25.936" cy="25.5889" r="24.9139" transform="rotate(178.979 25.936 25.5889)" fill="#3A3A3A"/>
<path d="M28.1314 36.5514C28.1511 37.6558 27.2718 38.567 26.1674 38.5867C25.0632 38.6062 24.1517 37.7269 24.132 36.6227L23.826 19.4555L16.3774 27.1745C15.6105 27.969 14.3445 27.9915 13.5497 27.2249C12.7549 26.4579 12.7323 25.1911 13.4993 24.3962L24.3005 13.2029C25.0675 12.408 26.3343 12.3855 27.1292 13.1525L38.3225 23.9537L38.4629 24.1035C39.1173 24.8775 39.0919 26.0372 38.3729 26.7823C37.606 27.5768 36.34 27.5994 35.5453 26.8327L27.8253 19.3832L28.1314 36.5514Z" fill="white"/>
</svg>
