<svg width="51" height="51" viewBox="0 0 51 51" fill="none" xmlns="http://www.w3.org/2000/svg">
<circle cx="25.7708" cy="25.1325" r="24.9139" transform="rotate(-89.9608 25.7708 25.1325)" fill="#371DCD"/>
<path d="M14.7696 27.1244C13.665 27.1237 12.7702 26.2276 12.771 25.1231C12.772 24.0187 13.6679 23.1237 14.7724 23.1244L31.9423 23.1362L24.3625 15.546C23.5823 14.7645 23.5832 13.4984 24.3644 12.7179C25.146 11.9374 26.413 11.9383 27.1935 12.7199L38.185 23.7264C38.9655 24.508 38.9647 25.775 38.1831 26.5555L27.1765 37.547L27.0241 37.6846C26.2381 38.3246 25.0791 38.2777 24.3474 37.5451C23.5673 36.7635 23.5681 35.4974 24.3494 34.7169L31.9405 27.1362L14.7696 27.1244Z" fill="white"/>
</svg>
