<svg width="68" height="67" viewBox="0 0 68 67" fill="none" xmlns="http://www.w3.org/2000/svg">
<path d="M34.019 66.6911C52.2631 66.6911 67.0529 51.9013 67.0529 33.6572C67.0529 15.4131 52.2631 0.623291 34.019 0.623291C15.7749 0.623291 0.985107 15.4131 0.985107 33.6572C0.985107 51.9013 15.7749 66.6911 34.019 66.6911Z" fill="#7D2AE7"/>
<path d="M34.019 66.6911C52.2631 66.6911 67.0529 51.9013 67.0529 33.6572C67.0529 15.4131 52.2631 0.623291 34.019 0.623291C15.7749 0.623291 0.985107 15.4131 0.985107 33.6572C0.985107 51.9013 15.7749 66.6911 34.019 66.6911Z" fill="url(#paint0_radial_260_532)"/>
<path d="M34.019 66.6911C52.2631 66.6911 67.0529 51.9013 67.0529 33.6572C67.0529 15.4131 52.2631 0.623291 34.019 0.623291C15.7749 0.623291 0.985107 15.4131 0.985107 33.6572C0.985107 51.9013 15.7749 66.6911 34.019 66.6911Z" fill="url(#paint1_radial_260_532)"/>
<path d="M48.2805 40.4336C48.0079 40.4336 47.7679 40.6638 47.5183 41.1666C44.6989 46.8835 39.8293 50.9286 34.1943 50.9286C27.6786 50.9286 23.6437 45.0468 23.6437 36.9212C23.6437 23.1571 31.3127 15.1989 38.0486 15.1989C41.1963 15.1989 43.1185 17.1769 43.1185 20.3247C43.1185 24.0606 40.996 26.0387 40.996 27.3563C40.996 27.9477 41.3638 28.3059 42.0934 28.3059C45.0244 28.3059 48.4644 24.9379 48.4644 20.1801C48.4644 15.5669 44.4493 12.176 37.7134 12.176C26.5812 12.176 16.6877 22.4966 16.6877 36.7765C16.6877 47.83 22.9997 55.1344 32.7388 55.1344C43.0757 55.1344 49.0528 44.8497 49.0528 41.5115C49.0528 40.7722 48.6748 40.4336 48.2805 40.4336Z" fill="white"/>
<defs>
<radialGradient id="paint0_radial_260_532" cx="0" cy="0" r="1" gradientUnits="userSpaceOnUse" gradientTransform="translate(13.7469 59.1806) rotate(-49.416) scale(51.0979)">
<stop stop-color="#6420FF"/>
<stop offset="1" stop-color="#6420FF" stop-opacity="0"/>
</radialGradient>
<radialGradient id="paint1_radial_260_532" cx="0" cy="0" r="1" gradientUnits="userSpaceOnUse" gradientTransform="translate(18.4756 8.13402) rotate(54.703) scale(57.6223)">
<stop stop-color="#00C4CC"/>
<stop offset="1" stop-color="#00C4CC" stop-opacity="0"/>
</radialGradient>
</defs>
</svg>
