<svg width="89" height="63" viewBox="0 0 89 63" fill="none" xmlns="http://www.w3.org/2000/svg">
<path d="M25.8635 61.8853C10.101 60.0474 1.65529 51.2953 0.22798 35.3197C-1.14301 19.9745 4.78997 7.95955 16.2115 2.9513C20.3519 1.13576 24.3662 0.384409 29.9605 0.377963C39.1196 0.36741 45.9217 2.8658 51.4176 8.25913C56.9414 13.6797 59.3642 20.1333 59.4523 29.6609C59.4917 33.9152 59.4234 34.5697 58.8876 35.0721C58.3187 35.6055 56.9166 35.6542 37.8304 35.8027C26.5842 35.8903 17.2548 36.0813 17.0984 36.2273C16.6062 36.6869 16.9447 39.8166 17.6865 41.6649C18.559 43.8385 21.0841 46.4965 23.3864 47.6646C26.8212 49.4072 32.4517 49.9647 37.1804 49.0304C39.7643 48.5199 41.4934 47.763 44.5978 45.7832C45.7934 45.0207 47.0227 44.3981 47.3295 44.3996C47.9099 44.4024 55.7327 50.8622 56.3001 51.8072C56.7963 52.6338 56.1361 53.4619 53.8037 54.9384C48.9181 58.0311 43.9339 60.181 39.1108 61.276C35.7844 62.0312 29.5674 62.3172 25.8635 61.8853ZM42.9302 25.06C42.9168 23.7983 41.9134 20.1836 41.2299 18.9348C40.141 16.9452 37.9661 14.9088 35.9844 14.0235C29.3177 11.0452 21.4716 13.2303 18.3496 18.9348C17.6661 20.1836 16.6628 23.7983 16.6493 25.06C16.6438 25.581 17.4948 25.6171 29.7898 25.6171C42.0847 25.6171 42.9357 25.581 42.9302 25.06ZM72.5641 59.7371C72.2387 59.6132 70.4332 58.2411 68.5519 56.688C66.2442 54.783 65.1313 53.6444 65.1313 53.1885C65.1313 52.8043 65.9649 51.6891 67.0637 50.6034C72.9441 44.7931 75.6541 38.0792 75.2779 30.2534C74.9534 23.5032 72.6592 18.2453 67.9972 13.5676C66.0747 11.6386 65.4756 10.8315 65.6299 10.3784C65.7435 10.0448 67.3859 8.46698 69.2796 6.87218C73.3152 3.47365 74.0222 3.29108 76.4534 5.01964C81.2331 8.41799 85.7901 15.6438 87.6904 22.8378C88.5838 26.22 88.9225 33.0798 88.3821 36.847C87.3438 44.0842 83.9812 51.0077 79.0731 56.0137C75.9979 59.1502 74.0095 60.2876 72.5641 59.7371Z" fill="#005BFE"/>
<path d="M72.5641 59.7371C72.2387 59.6132 70.4332 58.2411 68.5519 56.688C66.2442 54.783 65.1313 53.6444 65.1313 53.1885C65.1313 52.8043 65.9649 51.6891 67.0637 50.6034C72.9441 44.7931 75.6541 38.0792 75.2779 30.2534C74.9534 23.5032 72.6592 18.2453 67.9972 13.5676C66.0747 11.6386 65.4756 10.8315 65.6299 10.3784C65.7435 10.0448 67.3859 8.46698 69.2796 6.87218C73.3152 3.47365 74.0222 3.29108 76.4534 5.01964C81.2331 8.41799 85.7901 15.6438 87.6904 22.8378C88.5838 26.22 88.9225 33.0798 88.3821 36.847C87.3438 44.0842 83.9812 51.0077 79.0731 56.0137C75.9979 59.1502 74.0095 60.2876 72.5641 59.7371Z" fill="#FE3C00"/>
</svg>
