<svg width="90" height="82" viewBox="0 0 90 82" fill="none" xmlns="http://www.w3.org/2000/svg">
<path d="M40.7996 60.9186L48.9396 69.0585C49.7413 69.8602 50.693 70.4962 51.7405 70.9301C52.788 71.364 53.9107 71.5873 55.0445 71.5873C56.1783 71.5873 57.301 71.364 58.3485 70.9301C59.396 70.4962 60.3477 69.8602 61.1495 69.0585C61.9512 68.2568 62.5871 67.305 63.021 66.2575C63.4549 65.2101 63.6782 64.0874 63.6782 62.9536C63.6782 61.8198 63.4549 60.6971 63.021 59.6496C62.5871 58.6021 61.9512 57.6503 61.1495 56.8486M53.0095 48.7087L63.1844 58.8836C64.8036 60.5027 66.9996 61.4124 69.2894 61.4124C71.5792 61.4124 73.7752 60.5027 75.3943 58.8836C77.0135 57.2645 77.9231 55.0685 77.9231 52.7787C77.9231 50.4889 77.0135 48.2928 75.3943 46.6737L59.6029 30.8822C57.3135 28.5957 54.2102 27.3114 50.9745 27.3114C47.7389 27.3114 44.6356 28.5957 42.3462 30.8822L38.7646 34.4638C37.1455 36.0829 34.9495 36.9926 32.6597 36.9926C30.3699 36.9926 28.1739 36.0829 26.5547 34.4638C24.9356 32.8447 24.026 30.6487 24.026 28.3589C24.026 26.0691 24.9356 23.873 26.5547 22.2539L37.9913 10.8173C41.7041 7.11422 46.546 4.7553 51.7504 4.11396C56.9549 3.47262 62.2246 4.5855 66.7253 7.27643L68.6382 8.41602C70.3711 9.46195 72.4316 9.82471 74.4175 9.43352L81.4993 8.00903M81.4993 3.93906L85.5692 48.7087H77.4293M8.23989 3.93906L4.16992 48.7087L30.6247 75.1635C32.2438 76.7826 34.4399 77.6922 36.7297 77.6922C39.0195 77.6922 41.2155 76.7826 42.8346 75.1635C44.4537 73.5443 45.3634 71.3483 45.3634 69.0585C45.3634 66.7687 44.4537 64.5727 42.8346 62.9536M8.23989 8.00903H40.7996" stroke="#AEE8FF" stroke-width="7" stroke-linecap="round" stroke-linejoin="round"/>
</svg>
