<svg width="68" height="62" viewBox="0 0 68 62" fill="none" xmlns="http://www.w3.org/2000/svg">
<path d="M63.7552 0.87355C62.6825 0.876391 61.2868 1.20198 59.4513 1.83724C51.7041 4.51722 44.79 9.00328 38.4698 15.4465L34.0652 20.6537L35.7632 23.0882C38.6737 27.2035 41.7187 34.1766 43.1439 40.0448C44.0186 43.4135 44.3618 45.4957 44.5053 48.9715C44.5297 49.5556 44.5586 50.1718 44.5728 50.848C44.5884 51.5188 44.6 52.2421 44.6068 53.0288C44.6383 57.1944 44.6891 61.9554 44.2537 61.9554H65.0167L66.1938 60.7548C66.9261 59.7036 67.0347 55.9912 67.0347 31.1852C67.0347 5.54143 66.9482 2.71343 66.1441 1.81934C65.5769 1.19147 64.8284 0.870993 63.7552 0.87355Z" fill="#A4CE4E"/>
<path d="M4.27418 0.873212C3.23216 0.855597 2.47404 1.13828 1.83589 1.71843C0.906747 2.56393 0.861084 4.19187 0.861084 31.0843C0.861084 55.9749 0.969144 59.7033 1.70202 60.755L2.54296 61.9554H23.1883C39.1267 61.9554 43.9309 61.8011 44.2537 61.2792C44.4834 60.9076 44.6388 57.1946 44.6065 53.0287C44.5583 46.7338 44.3115 44.5416 43.1439 40.0451C40.5887 30.2064 35.7754 21.3372 28.8445 14.7266C22.8165 8.9768 15.8785 4.40921 8.44369 1.83662C6.64695 1.21613 5.31535 0.891394 4.2739 0.87378L4.27418 0.873212Z" fill="#0192D5"/>
<path d="M34.0662 20.6523L32.7542 22.2431C30.4239 25.0989 26.1727 34.5679 24.7515 40.0623C23.5895 44.554 23.3467 46.7416 23.3059 53.063C23.2784 57.2414 23.2046 61.9561 23.625 61.9561H44.2536C44.6886 61.9561 44.6387 57.1953 44.6064 53.0295C44.5582 46.7345 44.24 44.5608 43.1438 40.0458C41.7186 34.177 38.6804 27.2087 35.7699 23.0934L34.0662 20.6523Z" fill="#0065A5"/>
</svg>
