<svg width="89" height="62" viewBox="0 0 89 62" fill="none" xmlns="http://www.w3.org/2000/svg">
<path d="M88.4388 31.3305C88.3718 35.6099 88.059 40.0975 86.9867 44.5123C86.6628 45.8451 85.9814 47.0112 85.0096 47.99C83.7475 49.2499 82.1613 49.8329 80.3183 49.406C78.4864 48.9791 77.5593 47.7089 77.1684 46.0846C76.6322 43.8668 77.079 41.6385 77.3248 39.4312C77.6934 36.0784 78.0061 32.7257 77.8498 29.3521C77.7716 27.5821 77.537 25.7808 76.1296 24.4584C74.2419 22.6883 71.6281 22.907 69.3495 24.8957C67.2719 26.697 65.8757 28.9357 64.714 31.3305C62.3683 36.1825 60.7822 41.2845 59.0956 46.3449C58.1796 49.0729 57.152 51.7592 55.0856 53.9354C47.881 61.4946 34.5442 60.6721 28.5795 52.1445C25.2509 47.3861 22.4137 42.3466 19.342 37.432C18.6718 36.37 17.9569 35.3392 17.041 34.4333C16.0469 33.465 14.9411 33.0172 13.489 33.3608C11.9587 33.7253 11.4226 34.8185 11.1657 36.068C10.7859 37.963 11.054 39.8372 11.4561 41.7114C12.3273 45.8138 14.0252 49.6976 15.0975 53.7375C15.4326 54.987 15.6448 56.2469 15.5554 57.538C15.4437 59.0165 14.7847 60.2347 13.2879 60.8178C11.5789 61.4946 9.88113 61.328 8.40671 60.2139C6.97696 59.1311 6.19507 57.6005 5.56956 56.0595C2.35264 48.2086 0.0628182 40.1704 0.531952 31.6637C0.844709 26.0827 1.90585 20.6371 4.69831 15.6184C6.96579 11.5264 10.2051 8.46526 15.3767 7.74681C18.8952 7.25744 22.0228 8.04877 24.7482 10.2145C27.9316 12.7447 30.1544 15.9725 32.4331 19.169C34.1532 21.5638 35.5383 24.1773 37.5601 26.3742C39.5036 28.4983 41.8269 30.0914 44.988 29.9873C48.5065 29.8728 50.6623 27.9048 52.0139 25.0727C54.3595 20.1373 56.2808 15.0354 58.7381 10.1312C60.6258 6.35158 63.3624 3.27998 67.5288 1.63485C73.7839 -0.832844 79.5029 1.15589 82.865 6.86178C85.6128 11.5369 86.9532 16.6388 87.7351 21.8866C88.1819 24.9478 88.3494 28.0194 88.4388 31.3305Z" fill="#2AA9D3"/>
</svg>
