<svg width="68" height="79" viewBox="0 0 68 79" fill="none" xmlns="http://www.w3.org/2000/svg">
<path fill-rule="evenodd" clip-rule="evenodd" d="M42.3248 0.284792C42.0815 0.291356 41.8409 0.337017 41.6121 0.419989L2.02716 14.7802C1.129 15.106 0.530935 15.9593 0.531006 16.9148V61.8689C0.532573 63.0081 1.37781 63.9698 2.50737 64.1174C2.64172 64.2008 2.59168 64.0617 2.7404 64.1154L42.4928 78.5252C42.9231 78.6797 43.3901 78.7007 43.8325 78.5854L65.3562 72.9775C66.3562 72.7168 67.0539 71.8136 67.0539 70.7802L67.0521 8.82331C67.0519 7.80519 66.3741 6.91164 65.3937 6.63712L42.9983 0.36771C42.7792 0.306497 42.5522 0.278546 42.3248 0.284792ZM40.0907 17.1012V63.8352L4.30321 63.363L17.1307 58.5824C18.0006 58.2582 18.5579 57.4028 18.558 56.4744V22.2984L40.0907 17.1012Z" fill="#EB3B00"/>
</svg>
