<svg width="68" height="40" viewBox="0 0 68 40" fill="none" xmlns="http://www.w3.org/2000/svg">
<path d="M33.2039 39.2507C30.3394 39.181 27.4926 38.7864 24.7204 38.0746C22.1306 37.415 19.6387 36.4288 17.307 35.1407C14.8246 33.7807 12.5988 32.0116 10.727 29.9109C9.92948 29.0151 9.4934 28.4137 9.27822 27.9193C9.20186 27.7627 9.15798 27.5927 9.14912 27.4193C9.13191 27.0995 9.23519 26.9037 9.48766 26.7826C9.57803 26.7375 9.58807 26.7361 9.75447 26.7361C9.84659 26.7299 9.93907 26.7409 10.027 26.7685C10.3182 26.8615 10.6883 27.0883 11.1674 27.4643C12.82 28.7771 14.6115 29.9118 16.5109 30.849C18.6296 31.8983 20.7039 32.6547 23.306 33.3279C26.2528 34.0861 29.2699 34.5505 32.3117 34.7139C33.356 34.7716 33.6572 34.7787 35.03 34.7787C36.5491 34.7787 37.242 34.7576 38.5014 34.673C43.6871 34.3237 48.811 33.1392 52.6282 31.4081C52.9318 31.2674 53.2331 31.1219 53.5319 30.9715C54.1789 30.6518 54.3496 30.5743 54.6178 30.4785C54.9951 30.3461 55.2547 30.3898 55.4742 30.6222C55.5465 30.6928 55.6028 30.7776 55.6394 30.871C55.676 30.9645 55.6921 31.0645 55.6865 31.1645C55.6133 31.749 54.8402 32.5786 53.3383 33.6899C49.7578 36.3379 44.8117 38.1873 39.355 38.9183C38.101 39.0845 36.8396 39.1908 35.5751 39.2366C34.7844 39.2582 33.9934 39.2629 33.2025 39.2507H33.2039ZM56.3708 35.8787C56.2051 35.8155 56.0685 35.6954 55.9863 35.5407C55.8759 35.3041 55.9103 35.097 56.1355 34.6378C56.2726 34.3643 56.4254 34.0986 56.5931 33.842C57.1841 32.88 57.778 31.5969 58.0577 30.6785C58.3389 29.7574 58.3733 29.2334 58.1725 28.9348C58.0003 28.6785 57.448 28.5179 56.5486 28.4601C56.1972 28.4376 55.0682 28.4517 54.7311 28.4813C53.978 28.5503 53.4545 28.6249 52.7516 28.7644C52.2495 28.8644 52.1519 28.8771 51.7976 28.8771C51.4548 28.8771 51.3845 28.8672 51.2454 28.7996C51.1405 28.7435 51.0555 28.6574 51.0017 28.5527C50.9479 28.4481 50.9278 28.3298 50.9441 28.2137C50.98 28.0207 51.1076 27.839 51.3429 27.646C51.9439 27.1531 52.8835 26.6742 53.9063 26.3418C54.9802 25.9893 56.1101 25.8305 57.2415 25.8727C57.8859 25.8929 58.5259 25.9845 59.1493 26.146C60.1707 26.4051 60.7889 26.7375 61.0041 27.146C61.1691 27.4601 61.2308 27.7784 61.2293 28.3235C61.2205 29.2595 61.0578 30.1879 60.7473 31.0729C60.303 32.4058 59.5321 33.611 58.5024 34.5829C57.7421 35.3195 57.2157 35.7097 56.7882 35.8506C56.6543 35.8949 56.511 35.9046 56.3722 35.8787H56.3708ZM1.30682 25.6107C1.18449 25.5622 1.08344 25.4729 1.02136 25.3586L0.988368 25.2995L0.985499 16.0526C0.98263 7.67488 0.984064 6.79879 1.00415 6.72978C1.03284 6.63259 1.1519 6.50441 1.26666 6.45089L1.34699 6.41145H3.9434L4.01082 6.44244C4.11742 6.49203 4.20241 6.57748 4.25037 6.68329C4.30202 6.79175 4.31779 6.86499 4.52723 7.87348L4.67498 8.58759H4.81843L4.88298 8.45096C5.03202 8.13355 5.21833 7.83433 5.43812 7.55938C5.7112 7.23981 6.02785 6.95875 6.37914 6.72414C6.83315 6.4234 7.34526 6.21745 7.88368 6.11908C8.42211 6.02071 8.97538 6.03202 9.50918 6.15229C10.6023 6.38751 11.5892 7.10162 12.3064 8.17631C12.9993 9.21578 13.4856 10.706 13.6405 12.2708C13.6864 12.7356 13.6936 12.8652 13.7007 13.5342C13.7209 14.1944 13.6887 14.8551 13.6046 15.5104C13.3751 17.309 12.754 18.8654 11.8546 19.8908C11.6494 20.1152 11.429 20.3255 11.1947 20.5204C10.6277 20.9685 9.94936 21.2602 9.22945 21.3655C8.9483 21.4078 8.27122 21.412 8.00297 21.3726C6.96011 21.219 6.17401 20.743 5.48116 19.8443C5.29084 19.5914 5.1183 19.326 4.96474 19.0499C4.92601 18.9837 4.92458 18.9823 4.85429 18.9823H4.78257L4.7797 22.1416L4.77539 25.2995L4.73236 25.3741C4.67247 25.4765 4.58177 25.5582 4.47272 25.6079C4.41247 25.6276 4.2432 25.6305 2.88332 25.6305C1.64106 25.6305 1.35129 25.6262 1.30682 25.6107ZM7.67017 18.2344C8.21528 18.1316 8.64849 17.8288 8.98989 17.3118C9.42024 16.6639 9.67271 15.7202 9.74873 14.4695C9.77169 14.0962 9.75878 12.9892 9.72722 12.6708C9.66123 11.9948 9.55365 11.4454 9.39729 10.9989C9.0358 9.96369 8.47205 9.38339 7.67017 9.22423C7.39734 9.18937 7.12105 9.18937 6.84822 9.22423C6.19123 9.35381 5.69203 9.76369 5.32336 10.4736C5.11128 10.8917 4.96152 11.3376 4.87868 11.7976C4.69363 12.7159 4.66063 14.1047 4.79978 15.1695C4.91741 16.0724 5.16414 16.8048 5.52706 17.333C5.91437 17.8922 6.39492 18.1908 7.02896 18.2626C7.18388 18.2809 7.5009 18.2668 7.67017 18.2344ZM60.4203 21.3951L60.1979 21.374C59.1215 21.2811 58.0923 20.8974 57.2243 20.2655C56.808 19.9527 56.4297 19.594 56.0968 19.1964C55.1787 18.0584 54.6092 16.6104 54.4399 14.9737C54.3955 14.5385 54.3854 14.2695 54.3926 13.6681C54.3887 13.0977 54.4381 12.5281 54.5404 11.9666C55.0754 8.9707 57.0105 6.73259 59.5323 6.19454C59.9942 6.09595 60.36 6.05933 60.8865 6.05933C61.5951 6.0491 62.2991 6.17394 62.9593 6.42695C63.2111 6.53016 63.4568 6.64725 63.6952 6.77766C64.4673 7.2298 65.1285 7.84343 65.6318 8.57491C66.234 9.47669 66.6511 10.4853 66.8597 11.544C67.0074 12.268 67.0605 12.9075 67.0533 13.8962C67.049 14.4963 67.0476 14.5103 67.016 14.5667C66.9854 14.6277 66.9408 14.6811 66.8859 14.7226C66.8309 14.7641 66.767 14.7927 66.699 14.8061C66.633 14.8216 65.8727 14.8258 62.4888 14.8258H58.3604L58.369 14.9216C58.4837 16.1357 58.7104 16.9273 59.1106 17.5147C59.4448 18.0077 59.8551 18.2894 60.4016 18.4048C60.5766 18.4415 60.9926 18.4556 61.2021 18.433C61.7701 18.3682 62.1847 18.1795 62.5304 17.8231C62.8087 17.5372 62.9995 17.1795 63.1372 16.6851C63.2075 16.4315 63.2233 16.3935 63.2921 16.3189C63.3667 16.2372 63.4499 16.202 63.569 16.202C63.6981 16.202 66.4064 16.7963 66.5183 16.8485C66.5866 16.8783 66.6432 16.9293 66.6795 16.9936C66.7157 17.0579 66.7296 17.132 66.7191 17.2048C66.6904 17.4245 66.3633 18.1724 66.108 18.6091C65.5699 19.5408 64.7641 20.2962 63.7913 20.781C63.1224 21.0996 62.4011 21.2989 61.6611 21.3697C61.466 21.3909 60.5709 21.4092 60.4203 21.3951ZM63.1759 12.2596C63.1573 12.0624 63.0942 11.6609 63.0454 11.4187C62.8144 10.3017 62.3511 9.52988 61.7199 9.20733C61.4578 9.0799 61.1694 9.01325 60.8769 9.01252C60.5845 9.01179 60.2957 9.07699 60.033 9.2031C59.8311 9.30316 59.649 9.43765 59.495 9.6003C59.3072 9.77774 59.1489 9.98307 59.026 10.2088C58.7534 10.6919 58.5483 11.3426 58.435 12.0933C58.4192 12.1976 58.4063 12.3004 58.4063 12.3229V12.361H63.1845L63.1745 12.2596H63.1759ZM16.082 21.012C15.9676 20.9554 15.8764 20.8619 15.8238 20.7472C15.8037 20.6866 15.8008 20.0739 15.8008 13.7131C15.8008 7.41008 15.8037 6.74104 15.8238 6.68048C15.8438 6.62963 15.8739 6.58317 15.9123 6.54377C15.9507 6.50437 15.9967 6.47281 16.0475 6.45089L16.1379 6.41005L17.3931 6.40582C18.6985 6.40159 18.7601 6.403 18.872 6.45934C18.9509 6.49878 19.0499 6.61428 19.0843 6.70865C19.1015 6.75372 19.1962 7.1805 19.2938 7.65657L19.4802 8.55519C19.4888 8.58336 19.4946 8.58759 19.5606 8.58336L19.6323 8.57914L19.7083 8.41012C19.8662 8.05077 20.0696 7.7124 20.3137 7.40304C20.45 7.23543 20.744 6.95232 20.9162 6.82414C21.5861 6.32272 22.299 6.09172 23.1869 6.09313C23.7894 6.09313 24.3202 6.19454 24.8079 6.40019C24.9686 6.46779 25.0561 6.53681 25.1091 6.63259C25.1436 6.7002 25.1464 6.71851 25.1464 6.86077C25.1464 7.0157 25.145 7.01993 24.7907 8.4242C24.5956 9.19888 24.4249 9.86087 24.4134 9.89186C24.3847 9.9651 24.3101 10.044 24.2384 10.075C24.1867 10.0921 24.1323 10.0997 24.0778 10.0975C23.9558 10.0975 23.9458 10.0947 23.4509 9.8975C22.933 9.69044 22.5429 9.57072 22.2416 9.52847C21.9791 9.50369 21.7147 9.50558 21.4527 9.5341C21.1901 9.57449 20.9382 9.66492 20.711 9.80031C20.5389 9.90454 20.2706 10.1665 20.1444 10.3539C19.7958 10.8736 19.638 11.4736 19.6022 12.4032C19.595 12.5934 19.5893 14.5399 19.5878 16.7273C19.5878 21.1317 19.5964 20.7627 19.496 20.8979C19.4618 20.9435 19.4164 20.9798 19.364 21.0035L19.2794 21.0444L17.723 21.0486L16.1666 21.0514L16.082 21.012ZM26.7688 21.0317C26.6283 20.9894 26.5379 20.9049 26.492 20.7782C26.4676 20.7092 26.4662 20.388 26.4662 13.7202V6.734L26.5035 6.65653C26.5508 6.55794 26.6182 6.49456 26.7186 6.44667L26.7961 6.41005L28.3095 6.40582C29.8774 6.40159 29.9491 6.40441 30.0595 6.45934C30.1329 6.50169 30.1918 6.56443 30.2288 6.63963C30.2532 6.68893 30.2546 7.06218 30.2575 13.692C30.2604 20.0767 30.2589 20.6979 30.2388 20.7697C30.2204 20.8308 30.1839 20.8852 30.1341 20.9261C29.9978 21.0599 30.1255 21.0528 28.3611 21.05C27.1647 21.05 26.8119 21.0458 26.7688 21.0317ZM33.2139 21.0317C33.0949 20.9894 32.9902 20.8979 32.9271 20.781L32.8926 20.7204V6.71992L32.9271 6.64527C32.9711 6.55454 33.0485 6.48358 33.1437 6.44667L33.2226 6.41005H34.5279C35.7429 6.41005 35.839 6.41145 35.8993 6.4354C35.9625 6.45868 36.0197 6.49537 36.0668 6.54285C36.1139 6.59032 36.1498 6.64741 36.1718 6.71006C36.1962 6.77485 36.3225 7.36078 36.5592 8.51294L36.5735 8.58618H36.7241L36.7743 8.46223C36.8782 8.22122 36.9985 7.98734 37.1344 7.76221C37.7139 6.85231 38.5516 6.28469 39.5701 6.11426C40.2472 6.00017 41.0003 6.0551 41.6186 6.26356C42.429 6.53681 43.1061 7.08049 43.6053 7.8608C43.7297 8.06452 43.8417 8.27522 43.941 8.49181L43.9826 8.58618H44.126L44.2408 8.41434C44.7558 7.63967 45.3941 6.9988 46.0267 6.62273C46.8674 6.13894 47.8524 5.95486 48.8153 6.10158C49.3022 6.17154 49.77 6.33583 50.1916 6.58488C50.6132 6.83394 50.9802 7.1628 51.2712 7.55234C51.4433 7.7777 51.5767 7.9932 51.7216 8.28335C52.0931 9.02422 52.3241 9.87214 52.4173 10.8426C52.4661 11.3454 52.4704 11.7384 52.4647 16.2555L52.4604 20.7204L52.4231 20.7979C52.3861 20.8917 52.3136 20.9679 52.2208 21.0106L52.1448 21.0444H49.0033L48.9416 21.012C48.8479 20.961 48.7701 20.886 48.7164 20.7951L48.6733 20.7204L48.6662 16.2132C48.6576 11.4215 48.6604 11.6483 48.5944 11.2694C48.4553 10.4623 48.0909 9.90031 47.5401 9.64115C47.2675 9.51297 47.0007 9.46509 46.6249 9.47776C46.0941 9.49607 45.6982 9.65664 45.3611 9.98764C44.9566 10.3834 44.7228 10.9665 44.6109 11.8539C44.5894 12.0272 44.5865 12.4455 44.5793 16.3822L44.5707 20.7204L44.5334 20.7979C44.4965 20.8917 44.424 20.9679 44.3312 21.0106L44.2551 21.0444H41.1136L41.039 21.0021C40.9462 20.9502 40.8698 20.8742 40.8181 20.7824L40.7837 20.7204L40.7765 16.2132C40.7679 11.4215 40.7708 11.6483 40.7048 11.2694C40.5657 10.4623 40.2013 9.90031 39.6505 9.64115C39.3779 9.51297 39.1111 9.46509 38.7353 9.47776C38.2045 9.49607 37.8086 9.65664 37.4715 9.98764C37.067 10.3834 36.8331 10.9665 36.7213 11.8539C36.6997 12.0272 36.6969 12.4455 36.6897 16.3822L36.6811 20.7204L36.6438 20.7979C36.6068 20.8917 36.5344 20.9679 36.4415 21.0106L36.3655 21.0444L34.8163 21.0472C33.574 21.05 33.257 21.0472 33.2154 21.0331L33.2139 21.0317ZM28.0656 5.24803C27.5516 5.19058 27.0744 4.95779 26.7172 4.59026C26.4422 4.31106 26.2575 3.9582 26.1864 3.57614C26.1434 3.36486 26.1319 2.9564 26.1635 2.71977C26.2496 2.08594 26.5436 1.60705 27.0572 1.26901C27.7959 0.78308 28.879 0.768995 29.6091 1.23662C29.8909 1.41444 30.1278 1.65285 30.302 1.93383C30.6104 2.44652 30.6749 3.24373 30.4612 3.87052C30.3592 4.15158 30.1967 4.40777 29.9848 4.62165C29.7729 4.83554 29.5166 5.0021 29.2333 5.11C28.8919 5.23958 28.4587 5.29169 28.0656 5.24803Z" fill="#0779FF"/>
</svg>
