<svg width="66" height="67" viewBox="0 0 66 67" fill="none" xmlns="http://www.w3.org/2000/svg">
<path d="M14.4971 0.97558L51.0875 0.938354C58.9859 1.36754 65.324 7.6685 65.8923 15.5373V52.1529C65.3656 59.9177 59.0614 66.2198 51.2999 66.7453H14.6843C6.89649 66.211 0.54189 59.8608 0.0864258 52.0489V15.6402C0.572546 7.92251 6.74978 1.54163 14.4971 0.97558ZM56.3615 33.8369C56.3615 20.9339 45.9011 10.4735 32.9981 10.4735C20.0951 10.4735 9.63475 20.9339 9.63475 33.8369C9.63475 46.7399 20.0951 57.2002 32.9981 57.2002C45.9011 57.2002 56.3615 46.7399 56.3615 33.8369Z" fill="black"/>
<path d="M56.3612 33.8367C56.3612 46.7397 45.9009 57.2001 32.9979 57.2001C20.0949 57.2001 9.63452 46.7397 9.63452 33.8367C9.63452 20.9337 20.0949 10.4734 32.9979 10.4734C45.9009 10.4734 56.3612 20.9337 56.3612 33.8367ZM27.3943 23.383C25.5156 23.4705 19.9011 24.0158 18.4153 24.8972C17.0194 25.7249 16.8793 27.6902 18.2424 28.646C19.4467 29.4901 20.5657 28.7752 21.8215 28.5234C28.521 27.1789 36.2179 27.4898 42.6371 29.9379C43.5995 30.3047 45.914 31.6634 46.6093 31.7587C48.6282 32.0379 50.0898 30.5576 49.0793 28.6328C48.6183 27.7548 46.9848 27.0376 46.0728 26.6117C40.57 24.041 33.4402 23.1027 27.3943 23.3841V23.383ZM27.6133 30.9255C25.8385 31.0098 21.2029 31.4981 19.75 32.3532C18.4318 33.1295 18.6234 35.3356 20.223 35.7363C21.1164 35.9608 22.7094 35.2907 23.697 35.0969C29.2359 34.0097 35.7799 34.6809 40.9357 36.9943C41.6408 37.3108 43.3444 38.4166 43.8929 38.5184C45.8538 38.8841 47.0625 36.5246 45.6666 35.3247C45.1388 34.8714 43.456 34.071 42.7586 33.7502C38.2281 31.6656 32.595 30.6879 27.6122 30.9255H27.6133ZM28.5965 38.1396C26.5513 38.2556 24.5061 38.4253 22.4948 38.8151C21.5894 38.9903 20.4934 39.0319 19.9361 39.864C19.2212 40.9315 20.0708 42.1183 21.227 42.2508C26.9892 40.8844 33.2245 40.5833 38.7481 43.0062C39.543 43.3544 41.4962 44.6387 42.198 44.5347C43.3039 44.3704 43.8042 43.0249 43.2491 42.1128C43.0323 41.7559 41.5083 40.9435 41.044 40.7103C37.6226 38.9968 33.9044 38.295 30.0932 38.1078L28.5965 38.1385V38.1396Z" fill="#1ED760"/>
<path d="M27.3945 23.3827C33.4403 23.1013 40.5701 24.0396 46.0729 26.6103C46.9849 27.0362 48.6185 27.7545 49.0794 28.6315C50.0911 30.5551 48.6283 32.0365 46.6094 31.7573C45.9152 31.6609 43.5996 30.3033 42.6372 29.9365C36.218 27.4884 28.5211 27.1775 21.8216 28.522C20.5658 28.7738 19.4468 29.4898 18.2425 28.6446C16.8794 27.6899 17.0195 25.7235 18.4155 24.8958C19.9023 24.0144 25.5157 23.4692 27.3945 23.3816V23.3827Z" fill="black"/>
<path d="M27.6135 30.925C32.5951 30.6885 38.2293 31.6663 42.7599 33.7498C43.4573 34.0706 45.1401 34.8698 45.6678 35.3242C47.0627 36.5242 45.8551 38.8836 43.8942 38.5179C43.3467 38.4161 41.642 37.3103 40.9369 36.9939C35.7812 34.6804 29.2372 34.0093 23.6983 35.0965C22.7107 35.2903 21.1187 35.9592 20.2242 35.7359C18.6246 35.3351 18.433 33.129 19.7513 32.3527C21.2041 31.4976 25.8398 31.0093 27.6146 30.925H27.6135Z" fill="black"/>
<path d="M28.5968 38.1392L30.0935 38.1085C33.9047 38.2968 37.624 38.9976 41.0443 40.711C41.5085 40.9431 43.0326 41.7566 43.2494 42.1135C43.8056 43.0267 43.3052 44.3723 42.1983 44.5354C41.4965 44.6394 39.5422 43.3551 38.7484 43.007C33.2259 40.5829 26.9895 40.884 21.2272 42.2515C20.0711 42.1179 19.2203 40.9311 19.9364 39.8647C20.4937 39.0337 21.5896 38.9921 22.4951 38.8158C24.5064 38.426 26.5505 38.2563 28.5968 38.1403V38.1392Z" fill="black"/>
</svg>
