<svg width="91" height="32" viewBox="0 0 91 32" fill="none" xmlns="http://www.w3.org/2000/svg">
<path d="M51.4666 28.865C53.8136 28.814 54.5631 27.2051 54.697 26.9249C54.8311 26.6434 61.5018 9.91235 61.5018 9.91235C61.5329 9.84349 61.5489 9.77008 61.5489 9.69861C61.5452 9.35794 61.1922 9.21491 60.938 9.21404H57.0617C56.7205 9.21177 56.3991 9.34237 56.3047 9.59482C56.2156 9.79732 51.479 22.8236 51.4809 22.8254C51.4851 22.8352 46.717 9.79732 46.6306 9.59482C46.5334 9.34497 46.2131 9.21177 45.8725 9.21404H41.9964C41.7421 9.21491 41.3886 9.35794 41.385 9.69861C41.385 9.77008 41.4023 9.84349 41.4318 9.91235C41.4318 9.91235 48.1302 26.6969 48.2373 26.9249C48.3439 27.1517 49.1204 28.814 51.4666 28.865Z" fill="#E1363A"/>
<path d="M81.4605 16.297C81.4605 15.4891 81.7629 14.9835 82.2308 14.5284C82.6604 14.1115 83.3699 13.9075 83.9566 13.9075L89.2298 13.9131C89.4733 13.9131 89.7345 13.877 89.9516 13.702C90.1793 13.5134 90.2199 13.2602 90.2199 13.0923L90.2294 9.97657C90.2294 9.80888 90.1889 9.55546 89.9622 9.36626C89.7811 9.22236 89.5738 9.17295 89.371 9.15976L89.3752 9.15576H84.4825C82.1319 9.15652 80.0203 9.62033 78.5777 10.8429C77.1341 12.0666 76.3375 13.9963 76.34 16.7162V27.8623C76.34 28.0893 76.3769 28.3312 76.5659 28.5359C76.7678 28.7474 77.0406 28.7852 77.2205 28.7852L80.5631 28.7945C80.743 28.7945 81.0146 28.7573 81.2177 28.5452C81.3712 28.3772 81.426 28.183 81.4392 27.9938L81.4427 27.9981L81.4605 16.297Z" fill="#E1363A"/>
<path d="M63.7751 4.23376C63.7751 4.00672 63.813 3.76487 64.0026 3.5601C64.2047 3.34798 64.4765 3.31089 64.6572 3.31089L67.998 3.30916C68.179 3.30916 68.4508 3.347 68.652 3.55837C68.8407 3.76314 68.8802 4.0051 68.8802 4.2329V9.24045L73.1546 9.23732C73.3982 9.23732 73.6575 9.27245 73.8774 9.44673C74.1042 9.63356 74.1447 9.88514 74.1447 10.0515L74.1436 13.1393C74.1436 13.3061 74.1031 13.5571 73.8763 13.7438C73.6559 13.9181 73.3964 13.9535 73.1536 13.9535L68.8802 13.9529V21.7271C68.8802 22.5357 69.1725 23.0416 69.6403 23.4964C70.0689 23.9136 70.7764 24.1175 71.3644 24.1175L73.1386 24.1249C73.3832 24.1249 73.6495 24.1471 73.8685 24.3221C74.0962 24.5115 74.1365 24.7648 74.1365 24.9327L74.1465 28.0482C74.1465 28.2151 74.1057 28.4688 73.8791 28.6579C73.6982 28.8018 73.4907 28.8519 73.288 28.865L71.891 28.8693C69.5403 28.8673 67.4288 28.4037 65.9861 27.1822C64.5417 25.9574 63.7671 24.0277 63.7697 21.3076L63.7751 4.23376Z" fill="#E1363A"/>
<path d="M31.3855 1.67067C27.3195 -0.262097 22.3927 1.08999 20.0588 4.6647L20.0533 4.66221L17.9642 8.03809C17.6689 5.40755 16.0002 2.96124 13.2824 1.67067C9.01736 -0.354211 3.79852 1.22578 1.62525 5.20105C-0.548481 9.1746 1.14915 14.04 5.41322 16.0657C7.84026 17.2173 10.5751 17.2001 12.8829 16.241L10.9889 19.2974L10.9943 19.3006C10.884 19.4684 10.7759 19.6364 10.6772 19.8162C8.50414 23.7911 10.201 28.6544 14.465 30.6829C18.5252 32.6099 23.4432 31.2659 25.7837 27.7002L25.7872 27.7036L34.8969 12.9985L34.8926 12.9944C34.9865 12.844 35.0874 12.6949 35.1743 12.5372C37.3455 8.56094 35.6523 3.69739 31.3855 1.67067Z" fill="#E1363A"/>
</svg>
