<svg width="91" height="47" viewBox="0 0 91 47" fill="none" xmlns="http://www.w3.org/2000/svg">
<path d="M89.965 22.9624C90.385 23.6802 90.146 24.2301 89.325 24.4725L84.695 25.8242C83.996 26.0385 83.385 25.8614 83.095 25.2649L75.775 10.8069C75.576 10.462 75.255 10.5552 75.305 10.9374L77.805 26.8132C77.906 27.4648 77.545 27.9309 76.845 28.1369L73.495 29.1147C72.805 29.3207 72.224 29.1343 71.905 28.5554L64.185 14.2093C63.986 13.8644 63.675 13.9576 63.715 14.3398L66.614 30.1028C66.745 30.7451 66.344 31.2214 65.645 31.4265L61.024 32.7884C60.204 33.0214 59.665 32.7036 59.565 31.8926L56.495 7.26466C56.405 6.61214 56.765 6.14605 57.465 5.94098L62.944 4.32832C63.645 4.12325 64.184 4.32833 64.545 4.89695L69.694 13.1839C69.895 13.5195 70.204 13.4356 70.165 13.0441L69.284 3.50802C69.235 2.84618 69.555 2.38941 70.245 2.18434L75.735 0.571683C76.434 0.366606 77.005 0.562362 77.335 1.14031L89.965 22.9624Z" fill="#3A1F4F"/>
<path d="M0.384994 24.0251C-0.0350062 23.3073 0.204994 22.7573 1.02499 22.515L5.65499 21.1633C6.35499 20.9582 6.96499 21.1353 7.25499 21.7226L14.575 36.1899C14.775 36.5255 15.085 36.4322 15.045 36.051L12.545 20.1752C12.455 19.5227 12.805 19.0566 13.505 18.8515L16.845 17.8727C17.545 17.6677 18.125 17.8541 18.455 18.4414L26.165 32.7884C26.365 33.123 26.675 33.0308 26.635 32.6486L23.735 16.8856C23.605 16.2424 24.005 15.767 24.705 15.5619L29.335 14.2103C30.145 13.9679 30.685 14.2848 30.785 15.0958L33.855 39.7331C33.945 40.3753 33.585 40.8414 32.885 41.0474L27.405 42.6601C26.705 42.8642 26.175 42.6601 25.805 42.0914L20.655 33.8045C20.455 33.4689 20.145 33.5612 20.185 33.9433L21.065 43.4888C21.115 44.1506 20.795 44.598 20.095 44.8022L14.615 46.4148C13.915 46.6208 13.345 46.4335 13.015 45.8472L0.384994 24.0251Z" fill="#3A1F4F"/>
<path fill-rule="evenodd" clip-rule="evenodd" d="M34.745 21.5828C34.435 19.038 34.145 12.0746 43.365 9.36204C52.575 6.65875 53.954 13.3051 54.265 15.8499L55.435 25.4606C55.746 27.997 56.035 34.9697 46.816 37.673C37.606 40.3753 36.235 33.7308 35.925 31.1944L34.745 21.5828ZM42.355 27.1954C42.715 30.1503 43.135 31.9019 46.015 31.0536C48.885 30.2156 48.865 28.3513 48.505 25.386L47.825 19.8499C47.465 16.8856 47.045 15.1331 44.175 15.9814C41.295 16.8296 41.325 18.694 41.685 21.6583L42.355 27.1954Z" fill="#3A1F4F"/>
</svg>
