<svg width="220" height="56" viewBox="0 0 220 56" fill="none" xmlns="http://www.w3.org/2000/svg">
<path d="M40.8579 55.3755H37.4496L35.9639 55.3144C21.5992 54.723 2.51665 47.527 0.778368 30.9028C0.729118 30.4344 0.755006 29.9259 0.651454 29.4716C0.691864 28.4227 0.596521 27.3331 0.651454 26.2893C1.3719 12.5498 16.9097 4.81847 28.6647 2.6322C43.4227 -0.112275 64.4204 3.11648 73.8575 16.085C79.2845 23.543 78.7661 33.7842 73.5418 41.202C66.3948 51.3503 52.6306 55.0429 40.8579 55.3755ZM67.3047 11.5857C64.8902 9.70844 62.165 8.22119 59.3501 7.03788C49.8152 3.02854 38.3992 2.23075 28.2865 4.22332C22.4068 5.38177 16.6092 7.57378 11.6993 11.0453C13.8606 11.9304 16.1179 12.6192 18.3752 13.2233C20.6426 13.8293 22.9877 14.5207 25.3435 14.1122C26.523 13.9077 27.6822 13.4546 28.8548 13.1972C29.4584 13.0646 31.4922 12.8907 31.7927 12.7225C32.068 12.5689 32.4589 12.1795 32.7601 11.9795C37.0979 9.10245 42.1422 9.07505 46.9511 10.7573C48.2758 11.2205 49.5032 11.9106 50.816 12.3975C54.2458 13.6681 57.7564 14.0128 61.3738 13.4017C63.4221 13.0557 65.3883 12.365 67.3053 11.5857H67.3047ZM75.8805 24.2445C75.9588 24.1222 75.6096 22.835 75.5415 22.598C74.4131 18.6645 71.7113 15.1566 68.6003 12.6065C64.0257 14.7736 59.0035 15.7492 53.9749 14.8125C49.454 13.9708 45.8133 11.1339 41.0815 11.0753C36.3515 11.0166 33.4969 12.8174 30.3152 16.0723C29.3309 17.0797 27.9916 18.4593 27.1285 19.5419C26.7383 20.0319 26.8103 20.1613 27.3482 20.4678C28.6174 21.1923 30.6082 21.054 31.8742 20.3811C35.1891 18.6186 37.9661 14.2218 42.3089 15.4383C44.7045 16.1092 49.3909 20.5334 51.4625 22.3106C54.2332 24.6867 56.9476 27.133 59.7069 29.5226C64.928 27.2898 70.3386 25.5005 75.8799 24.2445H75.8805ZM29.8126 14.5149C28.2309 14.7736 26.689 15.4491 25.1023 15.6517C23.4171 15.8671 21.6087 15.5517 19.9651 15.1834C16.6616 14.4436 13.4559 13.2902 10.2931 12.1063C6.57032 15.0457 3.41452 19.0895 2.48445 23.8679C7.59005 25.2851 13.1459 26.3014 17.7994 28.9516C18.026 29.081 18.8172 29.6678 18.9511 29.6978C19.0729 29.7252 19.4688 29.3346 19.633 29.2307C21.2961 28.1806 23.2699 28.582 24.5422 30.0291C26.5135 28.6362 29.5702 29.195 30.7351 31.373C31.8155 30.9709 32.9691 31.1047 34.0021 31.5807C35.6526 32.3409 36.2739 33.9435 36.1255 35.7092C39.4429 35.5882 41.6687 39.0336 40.2916 42.0731C41.5809 42.6619 42.9435 43.2016 44.3648 42.7128C44.5978 42.6326 45.2134 42.321 45.2153 42.0412L41.8985 38.2581C41.7899 37.4839 42.3714 37.5941 42.8463 37.9382C44.1205 38.8622 45.1762 40.3717 46.3493 41.2798C47.6204 42.263 50.7377 40.9516 49.6857 39.061L45.7375 34.5107C45.5986 34.0895 45.7867 33.8448 46.2414 33.9416C46.696 34.0385 48.8011 36.1336 49.2873 36.5988C50.5564 37.812 51.3198 39.2706 53.3732 38.4314C55.0306 37.7534 55.6684 36.2471 54.4314 34.7853C52.9577 33.0438 50.965 31.4871 49.4426 29.7596C48.9899 28.8892 49.6087 28.7171 50.2938 29.2199C52.2373 30.6447 54.0273 32.7698 55.9127 34.3099C58.1467 35.7475 61.2538 33.2904 59.1658 30.9658C54.6916 27.1967 50.4251 23.1587 45.8751 19.4814C44.8182 18.6275 43.4701 17.4614 42.182 17.0319C37.8341 15.5835 34.4744 22.05 30.4156 22.3463C28.4772 22.4877 23.9828 21.6103 25.8682 18.7785L29.8139 14.5156L29.8126 14.5149ZM22.2925 36.1636C21.2545 36.2146 20.4178 36.119 19.5414 35.5327C18.0463 34.5323 17.5298 32.6678 18.1271 30.9799C18.045 30.6542 15.3697 29.3862 14.9144 29.188C10.8721 27.4268 6.49834 26.5009 2.22999 25.4629C1.43819 33.1349 6.41562 39.486 12.3831 43.5151C26.8841 53.3052 51.1285 53.3371 65.6958 43.6674C70.9416 40.1857 75.7694 34.677 76.14 28.0398C76.1602 27.674 76.2063 26.2103 76.1318 25.9491C76.1167 25.8955 76.0706 25.8376 76.0106 25.8688C70.8545 27.0922 65.764 28.6222 60.8674 30.6517C60.7285 30.7568 60.9823 31.0742 61.0404 31.2379C61.7097 33.1126 60.9811 34.8675 59.2276 35.7443C58.3727 36.1719 57.4508 36.2795 56.5107 36.1547C56.6313 38.7156 53.7931 40.4947 51.4619 40.0372C51.0521 42.1202 48.4368 43.5323 46.4535 42.8339C44.8573 45.126 41.6049 44.4518 39.4985 43.2851C39.1462 43.496 38.8583 43.7885 38.5015 43.9949C36.2177 45.3139 33.2791 44.3384 32.2644 41.8927C32.0137 41.8424 31.7883 41.9922 31.5471 42.01C29.824 42.1387 28.0156 41.2536 27.3407 39.6026C26.2584 39.7511 25.3315 39.6001 24.3888 39.0457C23.3135 38.4129 22.5817 37.3845 22.2919 36.1636H22.2925ZM24.0062 32.6538C24.1343 30.3713 21.3163 29.0593 19.8136 30.8773C18.1567 32.8819 20.474 35.701 22.7231 34.5113C22.9163 34.4093 23.2611 34.0429 23.3684 34.0194C23.8205 33.9193 23.5591 34.886 23.5616 35.1013C23.5825 37.0569 25.4666 38.8953 27.4139 38.0319C27.686 37.9115 28.4115 37.2328 28.4854 37.9114C28.5043 38.086 28.4197 38.2122 28.4235 38.3499C28.4646 39.8135 30.379 40.9669 31.6936 40.5661C32.1899 40.4151 32.4532 39.983 32.7948 39.8301C33.3751 39.5701 33.2949 40.6273 33.4079 41.0255C34.2357 43.9376 38.4655 43.8751 39.2352 40.9153C39.7612 38.8928 38.0822 36.911 36.0295 37.1098C35.5945 37.1519 35.1083 37.4374 34.7509 37.4781C34.1163 37.5508 34.6171 36.5395 34.6808 36.2585C35.0464 34.6368 34.6777 33.1878 32.9817 32.6717C32.1703 32.4251 31.4676 32.4646 30.7383 32.9195C30.5204 33.0553 30.1972 33.4745 29.9553 33.3764C29.7703 33.3012 29.7533 32.6889 29.6958 32.4849C29.1661 30.6173 26.9296 30.2407 25.4136 31.1774C24.7992 31.5572 24.4564 32.1198 24.0062 32.6538Z" fill="#ADADAD"/>
<path d="M112.351 24.7434H109.606C109.537 24.7434 108.961 24.5312 108.856 24.4809C108.271 24.1992 107.984 23.6799 107.877 23.0497C107.722 19.9388 108.06 16.6616 107.873 13.5705C107.725 11.1294 106.311 10.3698 104.006 10.6311C102.944 10.7515 101.748 11.6436 101.748 12.809V24.679H97.2669V13.0633C97.2669 12.8779 97.0655 12.2145 96.9815 12.0144C96.0104 9.69372 91.1441 10.0767 91.1441 12.8721V24.6784H86.6629L86.6604 13.1876C86.8928 9.50829 88.9139 7.14232 92.573 6.6746C94.8808 6.37958 97.5952 6.64274 99.5065 8.06564C100.799 7.2054 102.309 6.75234 103.861 6.66377C108.738 6.38467 112.053 8.22303 112.352 13.4456V24.7421L112.351 24.7434Z" fill="#ADADAD"/>
<path d="M194.342 3.13541C195.373 1.70232 197.039 0.998836 198.76 0.875854L198.763 17.3319C198.729 23.3529 194.329 25.557 188.89 24.8631C182.493 24.0462 181.358 17.6422 182.582 12.217C183.806 6.79173 189.572 4.65898 193.68 8.44912L194.342 9.34122V3.13541ZM189.91 10.6316C186.538 11.019 186.324 16.457 187.225 18.9039C187.938 20.8384 189.745 21.5687 191.691 21.0207C194.509 20.2274 194.661 15.865 194.071 13.529C193.52 11.3516 192.158 10.3735 189.909 10.6322L189.91 10.6316Z" fill="#ADADAD"/>
<path d="M138.671 27.4809V35.5002L139.27 34.6718C141.645 31.8266 146.685 32.3026 148.895 35.0879C151.269 38.0815 151.37 44.9137 149.277 48.0717C147.3 51.0539 142.974 51.5879 139.732 50.8825C135.588 49.9808 134.328 47.0923 134.186 43.1085C134.03 38.7105 134.306 34.2156 134.193 29.8073C134.975 28.0958 136.889 27.4159 138.671 27.4802L138.671 27.4809ZM141.813 36.7912C137.77 37.2805 137.669 45.7746 140.864 47.0688C143.706 48.2202 145.741 46.3098 146.111 43.5424C146.529 40.4035 145.857 36.3018 141.814 36.7905L141.813 36.7912Z" fill="#ADADAD"/>
<path d="M131.603 16.8515H119.105C119.222 18.2158 119.471 19.7056 120.663 20.5314C122.64 21.9002 126.141 21.3987 127.153 19.0155H131.288C130.34 22.0741 128.364 24.096 125.178 24.6619C118.116 25.9146 113.236 20.6047 114.59 13.6037C116.296 4.78593 128.801 3.78105 131.206 12.8282C131.555 14.1415 131.652 15.4924 131.603 16.8515ZM119.2 13.8605H126.774C126.908 13.749 126.779 13.4297 126.738 13.2602C126.43 11.9896 125.756 10.6923 124.435 10.2997C122.071 9.59752 119.608 10.7044 119.186 13.273C119.164 13.403 119.069 13.8235 119.2 13.8605H119.2Z" fill="#ADADAD"/>
<path d="M181.971 43.1375H169.568C169.541 43.1375 169.462 43.2376 169.476 43.2905C169.598 45.0963 170.191 46.8123 172.061 47.3705C174.128 47.988 176.528 47.4094 177.521 45.3652H181.593C180.834 48.2811 178.738 50.347 175.788 50.9364C170.902 51.9132 166.22 49.7397 165.048 44.6414C163.496 37.8926 168.121 31.871 175.168 32.9721C180.005 33.7278 182.271 38.5847 181.971 43.1369L181.971 43.1375ZM177.236 40.1465C176.846 38.2724 176.101 36.631 173.985 36.4557C171.457 36.2467 169.718 37.5798 169.473 40.1465H177.236Z" fill="#ADADAD"/>
<path d="M210.108 6.43251L210.847 6.41467C216.82 6.59182 220.12 11.1817 219.525 17.0109C218.944 22.7088 214.276 25.6171 208.836 24.7995C198.314 23.2186 199.458 6.43825 210.108 6.43251ZM210.172 10.0602C206.35 10.3412 205.838 15.1814 206.605 18.1375C207.65 22.1634 212.889 22.5145 214.335 18.7141C215.599 15.3924 214.737 9.72435 210.172 10.0602Z" fill="#ADADAD"/>
<path d="M169.41 12.1415H165.244C165.327 10.0164 166.109 8.15193 168.071 7.19547C169.941 6.28426 172.83 6.28681 174.851 6.62262C177.364 7.03999 179.447 8.29594 179.637 11.0888C179.774 13.1005 179.754 16.0725 179.637 18.095C179.396 22.2675 176.752 24.2868 172.841 24.7991C168.479 25.3707 164.387 23.8522 164.736 18.7265C164.974 15.2314 167.781 14.106 170.776 13.6154C171.952 13.4229 174.691 13.4064 175.183 12.0759C175.539 11.1111 174.67 10.4618 173.84 10.2509C172.108 9.81059 169.872 10.1107 169.409 12.1415H169.41ZM175.344 15.7692C173.363 16.6912 168.31 16.2732 169.19 19.7785C169.751 22.0107 173.203 21.4282 174.395 20.0633C174.843 19.5504 175.344 18.3887 175.344 17.7101V15.7692Z" fill="#ADADAD"/>
<path d="M162.656 13.0964H157.986C157.802 10.7987 155.821 9.71348 153.68 10.1226C149.196 10.9783 149.209 20.9686 153.975 21.3101C156.409 21.4847 157.87 20.1294 158.175 17.743H162.783C162.589 19.2972 162.06 20.8736 161.077 22.1009C158.248 25.6323 151.873 25.8012 148.548 22.8999C144.557 19.4182 144.642 11.9444 148.58 8.48111C152.997 4.59794 162.466 6.24131 162.656 13.0964Z" fill="#ADADAD"/>
<path d="M120.557 27.4805V51.1574H116.139V30.1854C116.139 29.8324 117.047 28.667 117.337 28.4025C117.768 28.0094 118.675 27.4805 119.263 27.4805H120.557Z" fill="#ADADAD"/>
<path d="M163.603 32.8906V37.5372L160.991 37.6085C159.414 37.6633 157.923 39.3182 157.923 40.8787V51.0939H153.379L153.375 41.5758C153.511 39.4609 153.93 37.3409 155.273 35.6612C157.277 33.1557 160.599 32.802 163.603 32.8906Z" fill="#ADADAD"/>
<path d="M144.415 6.60454V11.2511H142.111C141.398 11.2511 140.316 11.6653 139.805 12.1719C139.32 12.6523 138.734 13.9166 138.734 14.5926V24.7441H134.19L134.253 14.4658C134.505 11.8214 135.478 9.22986 137.831 7.82672C139.836 6.63067 142.135 6.53445 144.415 6.60518V6.60454Z" fill="#ADADAD"/>
<path d="M129.835 33.6545H125.354V51.1575H129.835V33.6545Z" fill="#ADADAD"/>
<path d="M129.835 27.4805H125.354V31.5542H129.835V27.4805Z" fill="#ADADAD"/>
</svg>
