<svg width="197" height="55" viewBox="0 0 197 55" fill="none" xmlns="http://www.w3.org/2000/svg">
<path d="M27.3338 51.0789C24.3779 51.6032 21.3684 51.7614 18.2567 52.1803L8.76427 24.0903V53.3856C5.80845 53.6997 3.11059 54.1193 0.309082 54.5382V0.875854H8.19384L18.983 31.323V0.875854H27.3338V51.0789ZM43.6737 20.5271L54.7753 20.3696V28.7463L43.6737 28.9038V41.3758L58.353 40.4838V48.5534L35.3744 50.3878V0.875854H58.353V9.25259H43.6737V20.5193V20.5271ZM89.2164 9.26035H80.6077V47.8298L72.316 47.9345V9.26035H63.6973V0.875854H89.2172L89.2164 9.26035ZM102.703 19.9508H114.064V28.3275H102.703V47.359H94.5592V0.875854H117.747V9.25259H102.703V19.943V19.9508ZM131.233 40.0216C135.954 40.1263 140.725 40.4932 145.342 40.7553V49.0343L122.934 47.9329V0.875854H131.225V40.0216H131.233ZM152.346 49.6114C154.992 49.7688 157.792 49.9263 160.489 50.2396V0.875854H152.346V49.6114ZM196.852 0.875854L186.322 26.397L196.852 54.5382C193.74 54.1193 190.627 53.5422 187.515 53.0179L181.549 37.507L175.481 51.7614C172.472 51.2371 169.567 51.0789 166.56 50.66L177.245 26.0821L167.596 0.875854H176.518L181.964 14.9728L187.774 0.875854H196.852Z" fill="#ADADAD"/>
</svg>
