<svg width="179" height="66" viewBox="0 0 179 66" fill="none" xmlns="http://www.w3.org/2000/svg">
<path fill-rule="evenodd" clip-rule="evenodd" d="M117.041 47.2324V13.0173C117.041 1.40566 129.244 -1.08775 137.955 2.2241V8.72542C131.968 6.28627 125.242 6.84844 125.242 14.4199H134.974V20.9154H125.242V47.1054L117.041 47.2324Z" fill="#ADADAD"/>
<path fill-rule="evenodd" clip-rule="evenodd" d="M155.676 9.34539H161.737L162.981 14.4246H170.519V20.9155H163.88V36.0375C163.88 39.0666 165.189 40.5826 167.805 40.5857H171.961V47.0778H163.848C158.401 47.0778 155.677 44.1607 155.677 38.3266L155.676 9.34539Z" fill="#ADADAD"/>
<path d="M149.426 14.4222H141.226V47.0731H149.426V14.4222Z" fill="#ADADAD"/>
<path d="M149.426 2.60511H141.226V9.34538H149.426V2.60511Z" fill="#ADADAD"/>
<path fill-rule="evenodd" clip-rule="evenodd" d="M178.839 47.0824C171.634 58.4435 158.947 65.9884 144.499 65.9884C130.051 65.9884 117.371 58.4435 110.162 47.0812C118.63 54.88 130.878 59.7791 144.499 59.7791C158.119 59.7791 170.371 54.8777 178.839 47.0824Z" fill="#ADADAD"/>
<path d="M1.38859 39.571V35.1105C3.75271 36.0571 6.48199 36.53 9.57643 36.5292C11.8851 36.5292 13.0395 35.787 13.0395 34.3025C13.0395 32.9473 12.258 32.2766 10.7089 32.2766H6.85677C2.5364 32.2751 0.376221 30.1118 0.376221 25.7868C0.376221 21.3387 3.53146 19.1146 9.84193 19.1146C12.4111 19.0968 14.9654 19.5056 17.4006 20.3244V24.7848C15.0342 23.8371 12.4727 23.3684 9.69879 23.3684C6.79213 23.3684 5.34687 24.1084 5.34687 25.5952C5.34226 26.9396 6.18647 27.6126 7.87953 27.6142H11.316C16.0397 27.6142 18.403 29.774 18.4061 34.0935C18.4061 38.5571 15.3951 40.7865 9.37326 40.7819C6.4135 40.7819 3.75194 40.3782 1.38859 39.571ZM22.1531 40.5856V19.3086H26.3088L26.9368 21.9844C29.3771 20.2009 31.8058 19.3086 34.2092 19.3086C36.8865 19.3086 38.7858 20.2813 39.9071 22.2268C42.6175 20.2782 45.1617 19.3055 47.5397 19.3086C52.0278 19.3086 54.2715 22.0021 54.2707 27.3891V40.5856H48.8949V27.1951C48.8949 24.8372 47.8972 23.6566 45.9017 23.6536C44.304 23.6536 42.6345 24.5713 40.8929 26.4067V40.5856H35.5286V27.2482C35.5286 24.8479 34.5424 23.6466 32.57 23.6443C30.8662 23.6443 29.1858 24.562 27.529 26.3975V40.5856H22.1531ZM58.1563 33.9608C58.1563 29.5989 61.2346 27.4187 67.3911 27.4202C69.0486 27.4029 70.7043 27.5366 72.3376 27.8196V26.4229C72.3376 24.5212 70.4933 23.5697 66.8047 23.5681C64.4592 23.5716 62.1265 23.9134 59.8786 24.5828V20.3232C62.1272 19.6575 64.4596 19.3174 66.8047 19.3132C74.0741 19.3132 77.7065 21.6488 77.7018 26.3201V40.5856H74.9868L72.6781 39.085C70.8673 40.0788 68.8333 40.5952 66.7678 40.5856C61.026 40.5856 58.1563 38.3774 58.1586 33.9608M72.341 31.8714C70.9846 31.6024 69.3397 31.472 67.3946 31.472C64.8112 31.4682 63.5194 32.2743 63.5194 33.8904C63.5194 35.5065 64.6011 36.318 66.7643 36.3249C68.9484 36.3249 70.8061 35.7716 72.3376 34.665L72.341 31.8714ZM82.9322 40.5856V19.3086H87.0879L87.7505 22.0201C89.6198 20.2163 91.5937 19.3124 93.6723 19.3086V23.6443C91.6715 23.6443 89.8822 24.5409 88.3046 26.334V40.5856H82.9322ZM96.9957 15.8651H100.967L101.783 19.3086H106.721V23.5635H102.372V33.3478C102.372 35.3326 103.229 36.3261 104.943 36.3284H106.721V40.5856H102.352C98.7811 40.5856 96.9957 38.6729 96.9957 34.8473V15.8651Z" fill="#ADADAD"/>
</svg>
