<svg width="179" height="57" viewBox="0 0 179 57" fill="none" xmlns="http://www.w3.org/2000/svg">
<path d="M28.2898 0.875854C13.0184 0.875854 0.637939 13.2669 0.637939 28.5518C0.637939 43.8373 13.0184 56.2273 28.2898 56.2273C43.5629 56.2273 55.942 43.8373 55.942 28.5518C55.942 13.2679 43.5628 0.877176 28.2895 0.877176L28.2898 0.875854ZM40.9708 40.7925C40.4755 41.6055 39.4122 41.8632 38.6 41.3642C32.1076 37.395 23.9345 36.4961 14.3092 38.6972C13.3816 38.9087 12.4571 38.327 12.2458 37.3983C12.0334 36.4697 12.6123 35.5443 13.5421 35.3328C24.0755 32.9241 33.1107 33.9612 40.3995 38.4195C41.2118 38.9186 41.4694 39.9795 40.9708 40.7925ZM44.3553 33.2566C43.7313 34.2719 42.4039 34.5925 41.3901 33.9678C33.9574 29.3952 22.6272 28.0709 13.8357 30.7419C12.6955 31.0866 11.4913 30.4435 11.1452 29.3043C10.8018 28.1631 11.4447 26.9601 12.5829 26.6131C22.6252 23.5633 35.1097 25.0406 43.6454 30.2905C44.6591 30.9151 44.9794 32.2433 44.3553 33.2566ZM44.6459 25.4095C35.7338 20.1114 21.0301 19.6242 12.5211 22.209C11.1548 22.6238 9.70983 21.8517 9.29576 20.4842C8.88169 19.1159 9.65238 17.6707 11.0197 17.2549C20.7874 14.2871 37.0249 14.8605 47.2855 20.9571C48.5172 21.6872 48.92 23.2758 48.1903 24.5042C47.4638 25.7343 45.8723 26.1398 44.6472 25.4095H44.6459ZM75.8695 26.4247C71.0949 25.2852 70.2462 24.4854 70.2462 22.8049C70.2462 21.2172 71.7387 20.1487 73.961 20.1487C76.1139 20.1487 78.247 20.9601 80.4857 22.6304C80.5518 22.6809 80.6376 22.7011 80.7202 22.6879C80.806 22.6753 80.8787 22.6294 80.9282 22.5603L83.2594 19.2713C83.3552 19.1358 83.3287 18.949 83.2 18.8456C80.5353 16.7063 77.537 15.6663 74.0303 15.6663C68.8759 15.6663 65.2734 18.7626 65.2734 23.1929C65.2734 27.9437 68.3806 29.6259 73.7497 30.9244C78.3163 31.9776 79.089 32.86 79.089 34.4371C79.089 36.1854 77.5304 37.2727 75.0209 37.2727C72.234 37.2727 69.959 36.3308 67.4164 34.1298C67.3537 34.0736 67.2679 34.0505 67.1886 34.0538C67.1028 34.0604 67.0268 34.1 66.974 34.1628L64.3588 37.276C64.2498 37.4082 64.263 37.5999 64.3885 37.7123C67.3471 40.3562 70.9859 41.7509 74.9153 41.7509C80.4692 41.7509 84.0585 38.7137 84.0585 34.0108C84.0684 30.0426 81.6943 27.8448 75.8794 26.429L75.8695 26.4247ZM96.6259 21.7119C94.2187 21.7119 92.2441 22.6611 90.6129 24.606V22.4169C90.6129 22.244 90.4743 22.1032 90.3026 22.1032H86.0265C85.8548 22.1032 85.7161 22.244 85.7161 22.4169V46.7413C85.7161 46.9131 85.8548 47.0552 86.0265 47.0552H90.3026C90.4743 47.0552 90.6129 46.9131 90.6129 46.7413V39.064C92.2441 40.8916 94.2187 41.7872 96.6259 41.7872C101.1 41.7872 105.63 38.3402 105.63 31.7506C105.637 25.1596 101.107 21.7116 96.6292 21.7116L96.6259 21.7119ZM100.658 31.7506C100.658 35.1047 98.5939 37.4479 95.6353 37.4479C92.713 37.4479 90.5073 34.999 90.5073 31.7506C90.5073 28.5019 92.713 26.0536 95.6353 26.0536C98.5443 26.0533 100.658 28.449 100.658 31.7506ZM117.237 21.7119C111.475 21.7119 106.961 26.1524 106.961 31.8223C106.961 37.4314 111.445 41.8236 117.168 41.8236C122.949 41.8236 127.476 37.3983 127.476 31.7506C127.476 26.122 122.979 21.7126 117.237 21.7126V21.7119ZM117.237 37.4809C114.173 37.4809 111.861 35.0155 111.861 31.7489C111.861 28.4675 114.093 26.0863 117.168 26.0863C120.252 26.0863 122.576 28.5508 122.576 31.8206C122.576 35.1014 120.331 37.4809 117.237 37.4809ZM139.78 22.1032H135.074V17.2893C135.074 17.1168 134.936 16.976 134.764 16.976H130.488C130.316 16.976 130.174 17.1168 130.174 17.2893V22.1032H128.12C127.949 22.1032 127.81 22.244 127.81 22.4169V26.0942C127.81 26.2668 127.949 26.4079 128.12 26.4079H130.174V35.9243C130.174 39.7679 132.086 41.7178 135.86 41.7178C137.392 41.7178 138.664 41.4006 139.862 40.7198C139.961 40.6669 140.021 40.5611 140.021 40.4487V36.9456C140.021 36.8398 139.965 36.7373 139.872 36.6812C139.78 36.6217 139.664 36.6184 139.568 36.6679C138.746 37.0811 137.95 37.2727 137.059 37.2727C135.688 37.2727 135.074 36.6481 135.074 35.2534V26.4095H139.78C139.951 26.4095 140.09 26.2687 140.09 26.0959V22.4189C140.097 22.246 139.958 22.1052 139.783 22.1052L139.78 22.1032ZM156.171 22.1221V21.5308C156.171 19.7915 156.838 19.0158 158.33 19.0158C159.222 19.0158 159.938 19.1929 160.741 19.4606C160.84 19.4917 160.942 19.4762 161.021 19.417C161.104 19.3579 161.15 19.263 161.15 19.1625V15.5569C161.15 15.4191 161.064 15.2971 160.929 15.2565C160.084 15.0043 159.001 14.7455 157.376 14.7455C153.43 14.7455 151.34 16.9711 151.34 21.1792V22.0847H149.286C149.114 22.0847 148.972 22.2255 148.972 22.398V26.0942C148.972 26.2668 149.114 26.4079 149.286 26.4079H151.34V41.0833C151.34 41.2585 151.482 41.3973 151.654 41.3973H155.926C156.101 41.3973 156.24 41.2585 156.24 41.0833V26.4089H160.232L166.347 41.0833C165.654 42.6234 164.971 42.9307 164.039 42.9307C163.286 42.9307 162.491 42.706 161.682 42.2598C161.606 42.2202 161.513 42.2136 161.434 42.2367C161.352 42.2664 161.282 42.3259 161.249 42.4053L159.8 45.5879C159.73 45.7399 159.79 45.9151 159.935 45.9944C161.447 46.814 162.811 47.1643 164.498 47.1643C167.655 47.1643 169.402 45.6903 170.937 41.7311L178.353 22.5504C178.393 22.4539 178.38 22.3448 178.32 22.2592C178.264 22.1743 178.169 22.1231 178.066 22.1231H173.615C173.48 22.1231 173.361 22.208 173.318 22.3333L168.758 35.3658L163.765 22.3247C163.719 22.2034 163.603 22.1231 163.475 22.1231H156.171V22.1221ZM146.668 22.1032H142.391C142.22 22.1032 142.078 22.244 142.078 22.4169V41.0833C142.078 41.2585 142.22 41.3973 142.391 41.3973H146.668C146.839 41.3973 146.981 41.2585 146.981 41.0833V22.4182C146.981 22.2454 146.843 22.1046 146.668 22.1046V22.1032ZM144.554 13.6034C142.86 13.6034 141.487 14.9756 141.487 16.6706C141.487 18.3667 142.86 19.7406 144.554 19.7406C146.248 19.7406 147.619 18.3667 147.619 16.6706C147.619 14.9759 146.245 13.6034 144.554 13.6034Z" fill="#ADADAD"/>
</svg>
