<svg width="161" height="55" viewBox="0 0 161 55" fill="none" xmlns="http://www.w3.org/2000/svg">
<path d="M0.852051 0.875854V33.885C0.852051 46.315 9.52044 54.5306 20.8253 54.5306C26.3246 54.5306 31.2247 52.4268 34.7666 48.7384V53.6385H42.5961V0.875854H34.6867V33.4189C34.6867 41.7877 29.0276 47.4401 21.7241 47.4401C14.334 47.4401 8.76811 41.9342 8.76811 33.4189V0.882515H0.852051V0.875854ZM50.3857 0.875854V53.6385H57.9089V48.8116C61.3776 52.3535 66.2777 54.5373 71.6239 54.5373C74.2699 54.5619 76.8946 54.0616 79.346 53.0652C81.7974 52.0688 84.0269 50.5962 85.9055 48.7325C87.784 46.8688 89.2743 44.6511 90.2901 42.2077C91.3059 39.7642 91.8271 37.1436 91.8235 34.4975C91.8359 31.845 91.3216 29.2165 90.3105 26.7644C89.2993 24.3122 87.8115 22.0851 85.9331 20.2123C84.0547 18.3396 81.8233 16.8583 79.3681 15.8545C76.9129 14.8506 74.2829 14.3441 71.6305 14.3644C69.0892 14.3612 66.573 14.8668 64.2301 15.8513C61.8872 16.8358 59.7651 18.2793 57.9888 20.0968V0.882515H50.379L50.3857 0.875854ZM116.091 14.4443C104.859 14.4443 96.3507 23.5654 96.3507 34.4176C96.3507 45.8689 105.232 54.4574 116.763 54.4574C123.774 54.4574 129.5 51.3748 133.341 46.2484L127.842 42.1805C124.979 46.022 121.211 47.8196 116.763 47.8196C110.285 47.8196 105.092 43.1592 104.034 36.9009H135.305V34.4176C135.305 22.9662 127.169 14.4443 116.091 14.4443ZM158.001 14.8971C153.78 14.8971 150.691 16.8544 148.807 19.9436V15.1967H141.277V53.6385H148.88V31.7678C148.88 25.8158 152.502 21.9809 157.475 21.9809H160.638V14.8904H158.001V14.8971ZM115.931 21.0754C121.59 21.0754 126.344 24.9902 127.622 30.8623H104.18C105.532 24.9902 110.279 21.0754 115.931 21.0754ZM71.1112 21.1553C78.3415 21.1553 84.2936 27.0341 84.2936 34.4975C84.3077 38.0109 82.9279 41.3865 80.4567 43.8839C77.9855 46.3813 74.6246 47.7967 71.1112 47.8196C69.3633 47.8232 67.6319 47.4806 66.0169 46.8117C64.402 46.1428 62.9355 45.1608 61.7019 43.9223C60.4684 42.6838 59.4923 41.2134 58.8298 39.5958C58.1674 37.9782 57.8318 36.2454 57.8424 34.4975C57.83 32.7486 58.1641 31.0147 58.8252 29.3956C59.4864 27.7765 60.4615 26.3044 61.6944 25.064C62.9274 23.8237 64.3936 22.8397 66.0087 22.1689C67.6238 21.498 69.3557 21.1535 71.1046 21.1553H71.1112Z" fill="#ADADAD"/>
</svg>
