<svg width="97" height="54" viewBox="0 0 97 54" fill="none" xmlns="http://www.w3.org/2000/svg">
<path d="M96.4174 26.5364C96.8645 27.3561 96.6101 27.9842 95.7361 28.2609L90.8073 29.8045C90.0632 30.0494 89.4127 29.8471 89.104 29.1658L81.3116 12.6548C81.0997 12.2609 80.758 12.3673 80.8112 12.8038L83.4726 30.934C83.5801 31.6781 83.1958 32.2104 82.4506 32.4457L78.8844 33.5624C78.1499 33.7976 77.5314 33.5847 77.1918 32.9236L68.9735 16.5403C68.7617 16.1465 68.4306 16.2529 68.4732 16.6894L71.5593 34.6908C71.6988 35.4242 71.2719 35.9682 70.5278 36.2024L65.6085 37.7577C64.7356 38.0239 64.1618 37.6609 64.0553 36.7347L60.7872 8.60949C60.6914 7.86432 61.0746 7.33204 61.8198 7.09784L67.6524 5.25619C68.3987 5.02199 68.9725 5.25619 69.3568 5.90556L74.8381 15.3693C75.0521 15.7526 75.381 15.6568 75.3395 15.2097L74.4016 4.31939C74.3495 3.56357 74.6901 3.04194 75.4246 2.80774L81.269 0.966081C82.0131 0.731882 82.621 0.955436 82.9723 1.61545L96.4174 26.5364Z" fill="#ADADAD"/>
<path d="M1.0557 27.7496C0.608588 26.9299 0.864078 26.3018 1.737 26.0251L6.66583 24.4815C7.41101 24.2473 8.06038 24.4495 8.3691 25.1202L16.1615 41.6419C16.3745 42.0251 16.7045 41.9187 16.6619 41.4833L14.0005 23.353C13.9047 22.6079 14.2773 22.0756 15.0225 21.8414L18.5781 20.7236C19.3232 20.4894 19.9407 20.7023 20.292 21.373L28.4996 37.7574C28.7125 38.1395 29.0425 38.0341 28.9999 37.5977L25.9128 19.5963C25.7744 18.8617 26.2002 18.3188 26.9454 18.0846L31.8742 16.541C32.7365 16.2643 33.3113 16.6262 33.4178 17.5524L36.6859 45.6882C36.7817 46.4217 36.3985 46.954 35.6533 47.1892L29.8196 49.0309C29.0744 49.264 28.5102 49.0309 28.1164 48.3815L22.634 38.9177C22.4211 38.5345 22.091 38.6399 22.1336 39.0763L23.0704 49.9772C23.1237 50.7331 22.783 51.2441 22.0378 51.4772L16.2041 53.3188C15.459 53.5541 14.8522 53.3401 14.5009 52.6705L1.0557 27.7496Z" fill="#ADADAD"/>
<path fill-rule="evenodd" clip-rule="evenodd" d="M37.724 24.8542C37.394 21.948 37.0853 13.9959 46.9004 10.8981C56.7048 7.81091 58.1728 15.4011 58.5039 18.3073L59.7494 29.2827C60.0805 32.1794 60.3881 40.1421 50.5741 43.2293C40.7697 46.3154 39.3102 38.7274 38.9802 35.8307L37.724 24.8542ZM45.8252 31.2638C46.2084 34.6384 46.6555 36.6387 49.7214 35.67C52.7767 34.713 52.7554 32.5839 52.3721 29.1976L51.6483 22.8753C51.265 19.49 50.8179 17.4887 47.7627 18.4574C44.6968 19.4261 44.7287 21.5552 45.112 24.9405L45.8252 31.2638Z" fill="#ADADAD"/>
</svg>
