<svg width="78" height="75" viewBox="0 0 78 75" fill="none" xmlns="http://www.w3.org/2000/svg">
<path d="M72.5266 20.1377C72.5266 12.0749 65.6818 5.36234 57.0168 5.3623H20.9973C12.3323 5.3623 5.48755 12.0748 5.48755 20.1377V54.6875C5.48774 62.7502 12.3325 69.4619 20.9973 69.4619H57.0168C65.6817 69.4619 72.5264 62.7502 72.5266 54.6875V20.1377ZM31.4133 22.7578C34.5603 21.1916 38.1333 20.6201 41.6282 21.1172L42.2942 21.2246C45.6055 21.8268 48.6705 23.3741 51.0813 25.6865C53.6544 28.1547 55.3459 31.3662 55.885 34.8535L55.9709 35.4951C56.3335 38.7073 55.7005 41.9523 54.1506 44.8174C52.4985 47.8715 49.8951 50.3292 46.7278 51.8584C43.5614 53.3871 39.981 53.9164 36.4924 53.3779C33.0036 52.8394 29.7655 51.2571 27.2444 48.8389C24.7219 46.4193 23.0453 43.2839 22.4729 39.8721C21.9004 36.4592 22.4653 32.9637 24.0793 29.8877C25.6925 26.8135 28.2652 24.3247 31.4133 22.7578ZM40.9241 26.0674C38.4237 25.7118 35.8736 26.1231 33.6409 27.2344C31.4093 28.3451 29.6188 30.0923 28.5071 32.2109C27.3962 34.3279 27.0132 36.7179 27.4036 39.0449C27.7941 41.3726 28.9424 43.5393 30.7053 45.2305C32.4699 46.923 34.7601 48.0514 37.2551 48.4365C39.7506 48.8217 42.3064 48.4406 44.554 47.3555C46.8001 46.2709 48.6129 44.5443 49.7522 42.4385C50.8195 40.4655 51.2506 38.2454 51.0032 36.0547L50.9446 35.6172C50.5768 33.2387 49.4186 31.0199 47.6204 29.2949C45.9328 27.6762 43.7654 26.5748 41.3997 26.1445L40.9241 26.0674ZM58.8538 15.9102L59.1096 15.9229C60.3701 16.051 61.3538 17.1158 61.3538 18.4102C61.3536 19.7043 60.37 20.7684 59.1096 20.8965L58.8538 20.9102H58.8176C57.4371 20.9101 56.3178 19.7906 56.3176 18.4102C56.3176 17.0295 57.437 15.9102 58.8176 15.9102H58.8538ZM77.5266 54.6875C77.5264 65.7058 68.2448 74.4619 57.0168 74.4619H20.9973C9.76938 74.4619 0.487735 65.7059 0.487549 54.6875V20.1377C0.487549 9.11916 9.76926 0.362305 20.9973 0.362305H57.0168C68.2449 0.362337 77.5266 9.11918 77.5266 20.1377V54.6875Z" fill="white"/>
</svg>
