<svg width="82" height="75" viewBox="0 0 82 75" fill="none" xmlns="http://www.w3.org/2000/svg">
<path d="M18.3579 25.8203C19.7386 25.8203 20.8579 26.9396 20.8579 28.3203V71.9619C20.8579 73.3426 19.7386 74.4619 18.3579 74.4619H3.19189C1.81118 74.4619 0.691895 73.3426 0.691895 71.9619V28.3203L0.70459 28.0645C0.832636 26.8038 1.89749 25.8203 3.19189 25.8203H18.3579ZM76.522 46.5039C76.5219 41.4142 74.415 36.511 70.6284 32.8789C66.8382 29.2434 61.6761 27.1836 56.2729 27.1836C50.8698 27.1837 45.7076 29.2434 41.9175 32.8789C38.131 36.511 36.024 41.4143 36.0239 46.5039V69.4619H46.1899V46.5039C46.19 43.8776 47.2786 41.3807 49.1802 39.5566C51.0783 37.736 53.6317 36.7305 56.2729 36.7305C58.9142 36.7305 61.4676 37.736 63.3657 39.5566C65.2673 41.3807 66.3559 43.8775 66.356 46.5039V69.4619H76.522V46.5039ZM5.69189 69.4619H15.8579V30.8203H5.69189V69.4619ZM15.8579 10.1357C15.8578 7.59654 13.6813 5.3623 10.7749 5.3623C7.86855 5.36233 5.69202 7.59655 5.69189 10.1357C5.69189 12.675 7.86846 14.9092 10.7749 14.9092C13.6814 14.9092 15.8579 12.675 15.8579 10.1357ZM81.522 71.9619C81.522 73.3426 80.4027 74.4619 79.022 74.4619H63.856C62.4754 74.4617 61.356 73.3425 61.356 71.9619V46.5039C61.3559 45.2724 60.8472 44.069 59.9048 43.165C58.9588 42.2576 57.6539 41.7305 56.2729 41.7305C54.8922 41.7305 53.588 42.2578 52.6421 43.165C51.6997 44.069 51.19 45.2724 51.1899 46.5039V71.9619C51.1899 73.3426 50.0707 74.4619 48.6899 74.4619H33.5239C32.1433 74.4618 31.0239 73.3426 31.0239 71.9619V46.5039C31.024 40.0194 33.7108 33.8227 38.4565 29.2705C43.1988 24.7217 49.6094 22.1837 56.2729 22.1836C62.9366 22.1836 69.348 24.7216 74.0903 29.2705C78.836 33.8227 81.5219 40.0195 81.522 46.5039V71.9619ZM20.8579 10.1357C20.8579 15.6307 16.2444 19.9092 10.7749 19.9092C5.30537 19.9092 0.691895 15.6307 0.691895 10.1357C0.692022 4.64089 5.30545 0.362327 10.7749 0.362305C16.2444 0.362305 20.8578 4.64088 20.8579 10.1357Z" fill="white"/>
</svg>
