<svg width="97" height="98" viewBox="0 0 97 98" fill="none" xmlns="http://www.w3.org/2000/svg">
<path d="M96.7617 18.3266C96.7617 8.55132 88.7508 0.598145 78.9031 0.598145C69.0553 0.598145 61.0431 8.55132 61.0431 18.3266C61.0431 28.1019 69.0553 36.0551 78.9031 36.0551C81.1891 36.0551 83.3674 35.6106 85.379 34.8299C87.9052 41.2829 91.6435 55.3254 83.7298 69.1555C77.2591 80.4635 63.9672 86.9217 48.7806 86.8136L48.7767 94.9166C48.8948 94.9166 49.8678 94.9166 49.986 94.9166C68.0337 94.9166 82.9078 86.9973 90.8268 73.1568C101.239 54.9605 95.2648 36.9374 92.2409 30.0739C95.0429 26.9419 96.7617 22.8337 96.7617 18.3253V18.3266ZM69.2049 18.3266C69.2049 13.0193 73.555 8.7012 78.9017 8.7012C84.2484 8.7012 88.5985 13.0193 88.5985 18.3266C88.5985 23.6339 84.2484 27.952 78.9017 27.952C73.555 27.952 69.2049 23.6339 69.2049 18.3266Z" fill="white"/>
<path d="M1.50192 80.1612C1.70806 89.9339 9.88567 97.7189 19.7308 97.5143C29.576 97.3097 37.4188 89.1909 37.2126 79.4183C37.0065 69.6456 28.8289 61.8606 18.9824 62.0652C16.6977 62.1121 14.5273 62.6022 12.5341 63.4246C9.87254 57.0263 5.83757 43.0646 13.4571 29.0729C19.6875 17.6333 33.59 10.9209 48.7753 10.7137V2.60799C48.6571 2.61059 46.7676 2.6119 46.6495 2.61451C28.6057 2.99118 13.9023 11.2168 6.27613 25.2189C-3.74893 43.6277 2.60487 61.5217 5.77192 68.3214C3.03686 71.5107 1.40475 75.6541 1.5006 80.1612H1.50192ZM29.0508 79.5877C29.1624 84.8937 24.9042 89.3017 19.5588 89.4125C14.2134 89.5233 9.77406 85.2965 9.66114 79.9905C9.54953 74.6844 13.8064 70.2764 19.1518 70.1656C24.4972 70.0549 28.9379 74.2804 29.0495 79.5877H29.0508Z" fill="white"/>
<path d="M48.7753 64.2822C57.969 64.2822 65.422 56.8841 65.422 47.7581C65.422 38.6321 57.969 31.234 48.7753 31.234C39.5816 31.234 32.1286 38.6321 32.1286 47.7581C32.1286 56.8841 39.5816 64.2822 48.7753 64.2822Z" fill="white"/>
</svg>
