<svg width="453" height="154" viewBox="0 0 453 154" fill="none" xmlns="http://www.w3.org/2000/svg">
<path d="M221.469 55.795H229.857V84.3537C229.857 89.9924 228.714 94.1394 226.432 96.7946C223.369 100.39 218.753 102.187 212.585 102.187C209.294 102.187 206.53 101.779 204.287 100.961C202.045 100.143 200.153 98.943 198.612 97.3607C197.07 95.7783 195.928 93.8506 195.187 91.5833H204.47C205.293 92.5231 206.35 93.2336 207.647 93.7119C208.943 94.1903 210.473 94.4309 212.243 94.4309C214.505 94.4309 216.323 94.0828 217.702 93.3893C219.078 92.6957 220.05 91.7956 220.617 90.6916C221.181 89.5876 221.466 87.6883 221.466 84.9935C219.984 86.4654 218.431 87.5212 216.807 88.1638C215.183 88.8064 213.342 89.1291 211.285 89.1291C206.783 89.1291 202.977 87.5156 199.874 84.2886C196.768 81.0616 195.215 76.977 195.215 72.0318C195.215 66.7412 196.859 62.4924 200.15 59.2852C203.131 56.3838 206.689 54.9344 210.821 54.9344C212.753 54.9344 214.579 55.2855 216.294 55.9903C218.01 56.6951 219.733 57.8557 221.46 59.4692V55.7921L221.469 55.795ZM212.738 62.75C210.086 62.75 207.895 63.6331 206.168 65.3995C204.441 67.1658 203.578 69.3879 203.578 72.0629C203.578 74.7379 204.461 77.1185 206.231 78.8962C208 80.6738 210.22 81.5627 212.892 81.5627C215.565 81.5627 217.659 80.6936 219.354 78.9584C221.05 77.2232 221.899 74.9445 221.899 72.1252C221.899 69.3058 221.044 67.0894 219.34 65.3542C217.633 63.619 215.434 62.75 212.738 62.75Z" fill="white"/>
<path d="M271.989 74.8853H244.938C245.328 77.2546 246.371 79.1398 248.069 80.5382C249.765 81.9365 251.93 82.6385 254.563 82.6385C257.708 82.6385 260.412 81.5459 262.675 79.3606L269.769 82.6697C268 85.1635 265.883 87.0063 263.416 88.2008C260.948 89.3954 258.019 89.9927 254.626 89.9927C249.36 89.9927 245.075 88.3424 241.764 85.0446C238.453 81.7469 236.798 77.6141 236.798 72.6491C236.798 67.6841 238.447 63.339 241.747 59.9789C245.046 56.6189 249.183 54.9375 254.161 54.9375C259.447 54.9375 263.743 56.6189 267.054 59.9789C270.365 63.339 272.02 67.7775 272.02 73.2916L271.989 74.8853ZM263.569 68.2983C263.014 66.4386 261.917 64.927 260.279 63.7636C258.64 62.6002 256.74 62.017 254.577 62.017C252.229 62.017 250.169 62.6709 248.397 63.9787C247.286 64.7968 246.254 66.2376 245.308 68.2983H263.569Z" fill="white"/>
<path d="M299.348 60.4537L294.136 65.631C292.019 63.5477 290.096 62.506 288.369 62.506C287.423 62.506 286.683 62.7041 286.15 63.1032C285.614 63.5024 285.349 63.9977 285.349 64.5893C285.349 65.0394 285.52 65.4527 285.859 65.8292C286.198 66.2085 287.036 66.7237 288.372 67.3776L291.458 68.909C294.706 70.5026 296.937 72.1274 298.151 73.7806C299.365 75.4365 299.972 77.3755 299.972 79.6033C299.972 82.5642 298.877 85.0382 296.686 87.0197C294.495 89.0011 291.561 89.9919 287.879 89.9919C282.984 89.9919 279.078 88.0925 276.157 84.2937L281.34 78.6861C282.326 79.8297 283.483 80.7554 284.811 81.4602C286.138 82.165 287.315 82.516 288.341 82.516C289.452 82.516 290.347 82.25 291.025 81.7206C291.703 81.1885 292.042 80.577 292.042 79.8835C292.042 78.5956 290.82 77.3416 288.372 76.1159L285.534 74.7062C280.107 71.9887 277.391 68.5891 277.391 64.5016C277.391 61.8662 278.414 59.613 280.46 57.7448C282.506 55.8765 285.121 54.9424 288.31 54.9424C290.489 54.9424 292.541 55.4179 294.464 56.3662C296.387 57.3173 298.017 58.6789 299.353 60.4565L299.348 60.4537Z" fill="white"/>
<path d="M307.613 43.5068H316.033V55.7948H321.031V62.9961H316.033V89.1346H307.613V62.9961H303.297V55.7948H307.613V43.5068Z" fill="white"/>
<path d="M328.818 42.0693C330.293 42.0693 331.559 42.6015 332.616 43.663C333.673 44.7245 334.2 46.0125 334.2 47.5241C334.2 49.0356 333.676 50.2868 332.63 51.3398C331.584 52.3928 330.333 52.9193 328.877 52.9193C327.421 52.9193 326.105 52.3843 325.048 51.3115C323.991 50.2387 323.464 48.9366 323.464 47.4052C323.464 45.8738 323.985 44.6792 325.031 43.6375C326.077 42.5958 327.339 42.075 328.815 42.075L328.818 42.0693ZM324.609 55.7953H333.029V89.1351H324.609V55.7953Z" fill="white"/>
<path d="M356.438 54.9374C359.604 54.9374 362.581 55.7243 365.368 57.2954C368.155 58.8692 370.328 61.0036 371.893 63.6984C373.454 66.396 374.238 69.3059 374.238 72.431C374.238 75.5561 373.451 78.5198 371.878 81.2571C370.306 83.9943 368.163 86.1343 365.448 87.677C362.732 89.2198 359.741 89.9897 356.473 89.9897C351.66 89.9897 347.554 88.2885 344.149 84.8888C340.747 81.4864 339.044 77.3564 339.044 72.4933C339.044 67.2848 340.967 62.9426 344.81 59.4693C348.181 56.4462 352.059 54.9346 356.438 54.9346V54.9374ZM356.578 62.8124C353.962 62.8124 351.783 63.7153 350.045 65.5241C348.304 67.333 347.435 69.6456 347.435 72.465C347.435 75.2843 348.295 77.7159 350.013 79.5134C351.734 81.3109 353.911 82.211 356.547 82.211C359.182 82.211 361.376 81.3024 363.128 79.4851C364.878 77.6678 365.755 75.3268 365.755 72.4678C365.755 69.6088 364.895 67.2848 363.177 65.4958C361.456 63.7097 359.259 62.8152 356.581 62.8152L356.578 62.8124Z" fill="white"/>
<path d="M381.113 55.7952H389.533V59.2118C391.442 57.6125 393.171 56.5 394.721 55.8745C396.271 55.2489 397.858 54.9375 399.479 54.9375C402.804 54.9375 405.628 56.0924 407.95 58.3994C409.902 60.3611 410.876 63.2625 410.876 67.1009V89.1321H402.548V74.5315C402.548 70.5515 402.369 67.9105 402.01 66.6056C401.651 65.3006 401.024 64.3042 400.132 63.622C399.24 62.937 398.137 62.5973 396.824 62.5973C395.12 62.5973 393.658 63.1635 392.439 64.2957C391.219 65.428 390.373 66.9934 389.9 68.9947C389.655 70.0363 389.53 72.2896 389.53 75.7572V89.1321H381.11V55.7924L381.113 55.7952Z" fill="white"/>
<path d="M452.208 55.7952V89.1349H443.788V85.6108C442.144 87.1648 440.497 88.2829 438.845 88.9651C437.192 89.6501 435.4 89.9927 433.468 89.9927C429.135 89.9927 425.385 88.3225 422.222 84.9823C419.06 81.6421 417.478 77.4895 417.478 72.5274C417.478 67.5652 419.008 63.1606 422.068 59.8714C425.128 56.5821 428.847 54.9375 433.22 54.9375C435.232 54.9375 437.121 55.3168 438.888 56.0698C440.654 56.8256 442.287 57.9607 443.785 59.4723V55.7952H452.208ZM434.936 62.6596C432.331 62.6596 430.172 63.5739 428.451 65.4025C426.73 67.2311 425.869 69.575 425.869 72.4339C425.869 75.2929 426.744 77.6849 428.496 79.5418C430.249 81.4015 432.405 82.33 434.967 82.33C437.528 82.33 439.805 81.4157 441.546 79.5871C443.287 77.7584 444.159 75.3637 444.159 72.4028C444.159 69.4419 443.287 67.1519 441.546 65.3544C439.805 63.5569 437.603 62.6568 434.939 62.6568L434.936 62.6596Z" fill="white"/>
<path d="M152.188 28.3889C152.188 12.9362 139.535 0.362305 123.978 0.362305C108.421 0.362305 95.7671 12.9362 95.7671 28.3889C95.7671 43.8416 108.424 56.4155 123.978 56.4155C127.588 56.4155 131.03 55.7134 134.207 54.4793C138.196 64.681 144.102 86.8821 131.602 108.746C121.382 126.622 100.386 136.835 76.3978 136.662L76.3921 149.471C76.5773 149.471 78.1159 149.471 78.3011 149.471C106.808 149.471 130.306 136.951 142.814 115.07C159.26 86.3018 149.823 57.811 145.048 46.9581C149.476 42.0073 152.188 35.5137 152.188 28.386V28.3889ZM108.66 28.3889C108.66 19.9987 115.532 13.1711 123.978 13.1711C132.423 13.1711 139.295 19.9987 139.295 28.3889C139.295 36.779 132.426 43.6066 123.978 43.6066C115.53 43.6066 108.66 36.7818 108.66 28.3889Z" fill="white"/>
<path d="M1.71574 126.146C2.04056 141.596 14.9591 153.904 30.5104 153.581C46.0617 153.258 58.4503 140.424 58.1255 124.971C57.8007 109.522 44.8821 97.2138 29.328 97.5365C25.718 97.6129 22.2903 98.3857 19.1419 99.685C14.9363 89.5681 8.56538 67.4973 20.6007 45.3755C30.4421 27.2903 52.4014 16.6781 76.3893 16.3497V3.53809C76.2041 3.54092 73.2181 3.54375 73.0329 3.54658C44.5317 4.14102 21.3045 17.1452 9.25775 39.2839C-6.57847 68.3862 3.45665 96.6788 8.45996 107.427C4.13762 112.468 1.56188 119.019 1.71289 126.146H1.71574ZM45.2326 125.24C45.4092 133.628 38.6821 140.597 30.2398 140.772C21.7974 140.948 14.7825 134.265 14.6058 125.877C14.4292 117.487 21.1534 110.521 29.5987 110.345C38.0439 110.17 45.0559 116.85 45.2326 125.24Z" fill="white"/>
<path d="M76.3891 101.044C90.912 101.044 102.685 89.3474 102.685 74.9193C102.685 60.4912 90.912 48.7949 76.3891 48.7949C61.8663 48.7949 50.0933 60.4912 50.0933 74.9193C50.0933 89.3474 61.8663 101.044 76.3891 101.044Z" fill="white"/>
</svg>
