<svg width="540" height="539" viewBox="0 0 540 539" fill="none" xmlns="http://www.w3.org/2000/svg">
<path d="M510.213 155.002C511.384 153.948 512.53 152.86 513.651 151.739C521.798 143.587 528.193 134.094 532.663 123.522C537.293 112.571 539.639 100.945 539.639 88.9631C539.639 76.9816 537.291 65.3549 532.663 54.4042C528.193 43.8317 521.798 34.3387 513.651 26.1874C505.504 18.0361 496.016 11.6368 485.45 7.16437C474.505 2.53219 462.885 0.184998 450.91 0.184998C438.935 0.184998 427.315 2.53387 416.371 7.16437C405.804 11.6368 396.316 18.0361 388.169 26.1874C380.023 34.3387 373.627 43.8317 369.157 54.4042C364.527 65.3549 362.181 76.9816 362.181 88.9631C362.181 100.945 364.529 112.571 369.157 123.522C373.627 134.094 380.023 143.587 388.169 151.739C396.316 159.89 405.804 166.289 416.371 170.762C427.315 175.394 438.935 177.741 450.91 177.741C462.885 177.741 474.505 175.392 485.45 170.762C489.251 169.153 492.913 167.293 496.423 165.193C501.979 177.388 511.95 202.41 517.328 234.871C521.346 259.128 522.036 283.092 519.381 306.097C516.115 334.386 507.736 361.423 494.476 386.458C483.482 407.215 469.38 426.219 452.562 442.945C436.057 459.361 417.149 473.377 396.363 484.606C375.553 495.85 353.176 504.127 329.855 509.21C306.043 514.4 281.549 516.186 257.055 514.52L255.916 531.295C262.217 531.724 268.516 531.937 274.807 531.937C294.552 531.937 314.2 529.829 333.433 525.637C358.293 520.22 382.152 511.391 404.349 499.401C426.554 487.404 446.763 472.422 464.411 454.87C482.428 436.951 497.539 416.583 509.326 394.33C523.569 367.438 532.569 338.401 536.078 308.026C538.915 283.464 538.185 257.926 533.91 232.12C527.741 194.881 515.746 166.641 510.216 155.002H510.213ZM478.905 155.276C470.042 159.027 460.625 160.927 450.91 160.927C441.196 160.927 431.778 159.026 422.916 155.276C414.352 151.653 406.659 146.463 400.052 139.85C393.444 133.239 388.257 125.541 384.634 116.973C380.885 108.105 378.984 98.6831 378.984 88.9631C378.984 79.2431 380.885 69.8207 384.634 60.9531C388.255 52.3848 393.443 44.6875 400.052 38.0764C406.659 31.4652 414.352 26.2748 422.916 22.6498C431.778 18.8987 441.196 16.9987 450.91 16.9987C460.625 16.9987 470.042 18.9003 478.905 22.6498C487.468 26.2731 495.161 31.4635 501.769 38.0764C508.376 44.6875 513.564 52.3848 517.187 60.9531C520.936 69.8207 522.836 79.2431 522.836 88.9631C522.836 98.6831 520.936 108.105 517.187 116.973C513.565 125.541 508.378 133.239 501.769 139.85C495.161 146.461 487.468 151.651 478.905 155.276Z" fill="#361BD0"/>
<path d="M45.8057 151.915C56.7991 131.159 70.9014 112.154 87.7192 95.4279C104.224 79.0127 123.133 64.9968 143.918 53.7669C164.729 42.5236 187.105 34.2462 210.426 29.1634C234.238 23.973 258.732 22.1874 283.226 23.8537L284.366 7.07862C258.29 5.30477 232.21 7.20808 206.849 12.7347C181.988 18.1538 158.129 26.981 135.933 38.9709C113.727 50.9674 93.5183 65.9501 75.8704 83.502C57.8528 101.42 42.7423 121.788 30.9557 144.041C16.7123 170.933 7.7119 199.971 4.20483 230.346C1.36825 254.908 2.09756 280.446 6.37259 306.252C12.5415 343.491 24.5381 371.729 30.0667 383.369C28.8955 384.424 27.7494 385.512 26.6286 386.633C18.4818 394.784 12.0861 404.277 7.61612 414.85C2.98651 425.801 0.640625 437.427 0.640625 449.409C0.640625 461.39 2.98819 473.017 7.61612 483.968C12.0861 494.54 18.4818 504.033 26.6286 512.184C34.7753 520.336 44.2631 526.735 54.8297 531.207C65.7743 535.84 77.3946 538.187 89.3694 538.187C101.344 538.187 112.964 535.838 123.909 531.207C134.476 526.735 143.963 520.336 152.11 512.184C160.257 504.033 166.653 494.54 171.123 483.968C175.752 473.017 178.098 461.39 178.098 449.409C178.098 437.427 175.751 425.801 171.123 414.85C166.653 404.277 160.257 394.784 152.11 386.633C143.963 378.482 134.476 372.082 123.909 367.61C112.964 362.978 101.344 360.631 89.3694 360.631C77.3946 360.631 65.7743 362.979 54.8297 367.61C51.0285 369.219 47.3668 371.079 43.8564 373.179C38.3009 360.984 28.3292 335.961 22.9518 303.503C18.9339 279.245 18.2432 255.281 20.8983 232.276C24.1651 203.987 32.5437 176.951 45.804 151.915H45.8057ZM61.3766 383.095C70.2393 379.344 79.6564 377.444 89.371 377.444C99.0856 377.444 108.503 379.346 117.365 383.095C125.929 386.719 133.622 391.909 140.229 398.522C146.837 405.133 152.024 412.83 155.647 421.399C159.396 430.265 161.297 439.689 161.297 449.409C161.297 459.129 159.396 468.551 155.647 477.419C152.026 485.987 146.839 493.684 140.229 500.295C133.622 506.906 125.929 512.097 117.365 515.722C108.503 519.473 99.0856 521.373 89.371 521.373C79.6564 521.373 70.2393 519.471 61.3766 515.722C52.8131 512.099 45.1201 506.908 38.5126 500.295C31.9051 493.684 26.7176 485.987 23.0946 477.419C19.3456 468.551 17.445 459.129 17.445 449.409C17.445 439.689 19.3456 430.266 23.0946 421.399C26.716 412.83 31.9035 405.133 38.5126 398.522C45.1201 391.911 52.8131 386.72 61.3766 383.095Z" fill="#361BD0"/>
<path d="M470.782 113.697V92.7638C470.781 90.794 469.915 88.9047 468.374 87.5117C466.928 86.2057 464.999 85.4362 462.966 85.3451L462.559 85.3354H434.949L442.935 92.5496C444.895 94.3198 444.895 97.1895 442.935 98.9598C440.975 100.73 437.798 100.73 435.838 98.9598L419.288 84.0082C417.328 82.2379 417.328 79.3674 419.288 77.5971L435.838 62.6455C437.798 60.8752 440.975 60.8752 442.935 62.6455C444.895 64.4158 444.895 67.2855 442.935 69.0558L434.95 76.269H462.559L463.012 76.2743C467.69 76.3793 472.152 78.1041 475.469 81.1006C478.894 84.1939 480.818 88.3893 480.818 92.7638V113.697C480.818 116.201 478.571 118.23 475.8 118.23C473.028 118.23 470.782 116.201 470.782 113.697Z" fill="#371DCD"/>
</svg>
