<svg width="876" height="894" viewBox="0 0 876 894" fill="none" xmlns="http://www.w3.org/2000/svg">
<g clip-path="url(#clip0_29_120)">
<path d="M49.9462 225.421C-16.8646 347.975 -16.3407 496.8 49.547 620.95C22.9524 649.962 6.56155 688.471 6.56155 730.818C6.56155 820.671 79.7341 893.8 169.697 893.8C259.659 893.8 332.832 820.696 332.832 730.818C332.832 640.939 259.659 567.835 169.697 567.835C149.264 567.835 129.755 571.773 111.717 578.653C61.2975 478.007 61.9212 359.191 115.435 261.063C181.372 140.079 314.52 65.7783 446.794 76.2217L452.657 1.94628C291.593 -10.7154 129.755 79.0631 49.9462 225.421ZM258.287 730.793C258.287 779.57 218.545 819.275 169.722 819.275C120.898 819.275 81.1561 779.57 81.1561 730.793C81.1561 682.015 120.898 642.31 169.722 642.31C218.545 642.31 258.287 682.015 258.287 730.793Z" fill="white" fill-opacity="0.14"/>
<path d="M876 164.829C876 74.9752 802.827 1.84631 712.89 1.84631C622.952 1.84631 549.755 74.9503 549.755 164.829C549.755 254.707 622.927 327.811 712.89 327.811C733.771 327.811 753.68 323.723 772.042 316.545C795.118 375.865 829.272 504.975 756.973 632.116C697.871 736.076 584.707 795.447 445.971 794.45L445.547 868.95C446.62 868.95 447.667 868.95 448.74 868.95C613.597 868.95 749.464 796.145 821.788 668.904C916.89 501.61 862.328 335.936 834.711 272.827C860.308 244.039 876 206.278 876 164.829ZM624.299 164.829C624.299 116.026 664.042 76.3461 712.865 76.3461C761.688 76.3461 801.43 116.051 801.43 164.829C801.43 213.606 761.688 253.311 712.865 253.311C664.042 253.311 624.299 213.606 624.299 164.829Z" fill="white" fill-opacity="0.14"/>
</g>
<defs>
<clipPath id="clip0_29_120">
<rect width="876" height="893" fill="white" transform="translate(0 0.774536)"/>
</clipPath>
</defs>
</svg>
