<svg width="29" height="32" viewBox="0 0 29 32" fill="none" xmlns="http://www.w3.org/2000/svg">
<path d="M15.8075 27.9767C16.2217 27.2593 17.1389 27.0137 17.8563 27.4279C18.5738 27.8421 18.8194 28.7593 18.4052 29.4767C18.0272 30.1312 17.4836 30.6749 16.829 31.0529C16.1744 31.4307 15.4315 31.63 14.6757 31.63C13.9198 31.6299 13.1769 31.4308 12.5224 31.0529C11.9496 30.7222 11.4618 30.2646 11.0956 29.7169L10.9462 29.4767L10.8768 29.34C10.5651 28.6466 10.8226 27.8163 11.495 27.4279C12.1676 27.0395 13.0161 27.2311 13.4608 27.8478L13.5448 27.9767L13.6395 28.1193C13.7436 28.2547 13.8735 28.3692 14.0224 28.4552C14.2209 28.5698 14.4464 28.6299 14.6757 28.63C14.9049 28.63 15.1305 28.5697 15.329 28.4552C15.5276 28.3406 15.6928 28.1752 15.8075 27.9767ZM21.5966 10.4825C21.5965 8.64738 20.8668 6.88767 19.5692 5.58997C18.2714 4.29218 16.511 3.56262 14.6757 3.56262C12.8404 3.56271 11.0808 4.29226 9.78309 5.58997C8.48539 6.88769 7.75582 8.64731 7.75575 10.4825L7.74989 11.0929C7.68964 14.0848 7.18306 16.2303 6.38954 17.9103C5.60037 19.5809 4.56596 20.6919 3.67567 21.6134H25.6776C24.7857 20.6914 23.7517 19.5809 22.9628 17.9113C22.1159 16.1188 21.5966 13.7964 21.5966 10.4825ZM24.5966 10.4825C24.5966 13.4821 25.0657 15.3397 25.6747 16.629C26.1327 17.5985 26.6965 18.311 27.3436 19.0128L28.0184 19.7208L28.0507 19.756C28.382 20.1201 28.6151 20.5614 28.7284 21.0382L28.7694 21.2443L28.7958 21.4532C28.8391 21.9414 28.7576 22.4337 28.5585 22.8839C28.3309 23.3984 27.9587 23.8358 27.4872 24.1427C27.0158 24.4495 26.4656 24.6125 25.9032 24.6124V24.6134H3.44813C2.8854 24.613 2.33444 24.4483 1.86317 24.1407C1.39217 23.8333 1.02078 23.3957 0.793835 22.881C0.56689 22.3662 0.494092 21.7965 0.58485 21.2413L0.626842 21.0343C0.740843 20.5578 0.973759 20.1167 1.30555 19.7531L1.33583 19.7198C2.26845 18.757 3.06595 17.9218 3.67665 16.629C4.24757 15.4203 4.69696 13.7125 4.75087 11.0323L4.75575 10.4825C4.75582 7.85166 5.80071 5.32823 7.66102 3.4679C9.52134 1.60758 12.0448 0.562713 14.6757 0.562622C17.3065 0.562622 19.83 1.60769 21.6903 3.4679C23.5507 5.32823 24.5965 7.85164 24.5966 10.4825Z" fill="white"/>
</svg>
