<svg width="88" height="30" viewBox="0 0 88 30" fill="none" xmlns="http://www.w3.org/2000/svg">
<path d="M8.30595 10.2992V12.4913H3.72995V14.8592H7.15395V16.9872H3.72995V21.5312H0.993953V10.2992H8.30595ZM11.12 11.6752C10.64 11.6752 10.2453 11.5366 9.93595 11.2592C9.63729 10.9712 9.48795 10.6192 9.48795 10.2032C9.48795 9.77658 9.63729 9.42458 9.93595 9.14725C10.2453 8.85925 10.64 8.71525 11.12 8.71525C11.5893 8.71525 11.9733 8.85925 12.272 9.14725C12.5813 9.42458 12.736 9.77658 12.736 10.2032C12.736 10.6192 12.5813 10.9712 12.272 11.2592C11.9733 11.5366 11.5893 11.6752 11.12 11.6752ZM12.48 12.6032V21.5312H9.74395V12.6032H12.48ZM17.1987 9.69125V21.5312H14.4627V9.69125H17.1987ZM24.1575 19.2112V21.5312H22.7655C21.7735 21.5312 21.0001 21.2912 20.4455 20.8112C19.8908 20.3206 19.6135 19.5259 19.6135 18.4272V14.8752H18.5255V12.6032H19.6135V10.4272H22.3495V12.6032H24.1415V14.8752H22.3495V18.4592C22.3495 18.7259 22.4135 18.9179 22.5415 19.0352C22.6695 19.1526 22.8828 19.2112 23.1815 19.2112H24.1575ZM28.4175 14.0912C28.7375 13.6006 29.1375 13.2166 29.6175 12.9392C30.0975 12.6512 30.6308 12.5072 31.2175 12.5072V15.4032H30.4655C29.7828 15.4032 29.2708 15.5526 28.9295 15.8512C28.5881 16.1392 28.4175 16.6512 28.4175 17.3872V21.5312H25.6815V12.6032H28.4175V14.0912ZM31.9812 17.0512C31.9812 16.1339 32.1519 15.3286 32.4932 14.6352C32.8452 13.9419 33.3199 13.4086 33.9172 13.0352C34.5145 12.6619 35.1812 12.4752 35.9172 12.4752C36.5465 12.4752 37.0959 12.6032 37.5652 12.8592C38.0452 13.1152 38.4132 13.4512 38.6692 13.8672V12.6032H41.4052V21.5312H38.6692V20.2672C38.4025 20.6832 38.0292 21.0192 37.5492 21.2752C37.0799 21.5312 36.5305 21.6593 35.9012 21.6593C35.1759 21.6593 34.5145 21.4726 33.9172 21.0992C33.3199 20.7152 32.8452 20.1766 32.4932 19.4832C32.1519 18.7792 31.9812 17.9686 31.9812 17.0512ZM38.6692 17.0672C38.6692 16.3846 38.4772 15.8459 38.0932 15.4512C37.7199 15.0566 37.2612 14.8592 36.7172 14.8592C36.1732 14.8592 35.7092 15.0566 35.3252 15.4512C34.9519 15.8352 34.7652 16.3686 34.7652 17.0512C34.7652 17.7339 34.9519 18.2779 35.3252 18.6832C35.7092 19.0779 36.1732 19.2752 36.7172 19.2752C37.2612 19.2752 37.7199 19.0779 38.0932 18.6832C38.4772 18.2886 38.6692 17.7499 38.6692 17.0672ZM46.1206 14.0912C46.4406 13.6006 46.8406 13.2166 47.3206 12.9392C47.8006 12.6512 48.3339 12.5072 48.9206 12.5072V15.4032H48.1686C47.4859 15.4032 46.9739 15.5526 46.6326 15.8512C46.2912 16.1392 46.1206 16.6512 46.1206 17.3872V21.5312H43.3846V12.6032H46.1206V14.0912Z" fill="#3A3A3A"/>
<path d="M85.5307 5.02598H76.7786M71.7774 5.02598H63.0254M85.5307 15.0283H74.278M69.2769 15.0283H63.0254M85.5307 25.0307H79.2792M74.278 25.0307H63.0254M76.7786 2.52539V7.52656M69.2769 12.5277V17.5289M79.2792 22.5301V27.5313" stroke="#3A3A3A" stroke-width="4" stroke-linecap="round" stroke-linejoin="round"/>
</svg>
