<svg width="30" height="32" viewBox="0 0 30 32" fill="none" xmlns="http://www.w3.org/2000/svg">
<path d="M12.2578 28.7105H18.0088V18.5659H12.2578V28.7105ZM21.0454 28.7105H25.3855C25.7597 28.7104 26.1185 28.5617 26.3831 28.2971C26.6476 28.0325 26.7964 27.6737 26.7965 27.2996V14.1178L26.7882 13.9648C26.7716 13.8124 26.7302 13.6633 26.6654 13.5236C26.6006 13.384 26.5135 13.2562 26.408 13.1452L26.2959 13.0396L26.2882 13.0331L16.044 4.25377L15.9455 4.17786C15.7424 4.0348 15.505 3.94769 15.2576 3.9258L15.133 3.92046C14.7997 3.92051 14.4772 4.03864 14.2226 4.25377L3.97841 13.0331C3.97578 13.0354 3.97276 13.0374 3.97011 13.0396C3.81337 13.1721 3.6876 13.3374 3.60122 13.5236C3.51483 13.7097 3.4701 13.9126 3.47015 14.1178V27.2996C3.47016 27.6737 3.61894 28.0325 3.88352 28.2971C4.14812 28.5617 4.5069 28.7105 4.88108 28.7105H9.22121V18.5119C9.22122 17.7209 9.53549 16.9623 10.0948 16.403L10.2022 16.3009C10.7493 15.8055 11.4622 15.5294 12.2038 15.5294H18.0622C18.8039 15.5294 19.5172 15.8054 20.0644 16.3009L20.1718 16.403L20.2738 16.5097C20.7693 17.0569 21.0454 17.7703 21.0454 18.5119V28.7105ZM29.833 27.2996C29.833 28.4791 29.364 29.61 28.53 30.4441C27.696 31.2781 26.565 31.747 25.3855 31.747H4.88108C3.70153 31.747 2.57005 31.2781 1.73599 30.4441C0.902105 29.61 0.433607 28.479 0.433594 27.2996V14.1184C0.433455 13.4715 0.57468 12.8323 0.846968 12.2455C1.11783 11.6618 1.51184 11.1437 2.00228 10.7272L12.2542 1.94137L12.2625 1.93484L12.4155 1.81089C13.1925 1.21109 14.1478 0.883956 15.133 0.883911L15.3299 0.888063C16.2452 0.928561 17.1259 1.251 17.8511 1.81089L18.0041 1.93484L18.0118 1.94137L28.2643 10.7272H28.2637C28.7543 11.1437 29.1487 11.6617 29.4196 12.2455C29.6919 12.8323 29.8331 13.4715 29.833 14.1184V27.2996Z" fill="#371DCD"/>
</svg>
