<svg width="20" height="22" viewBox="0 0 20 22" fill="none" xmlns="http://www.w3.org/2000/svg">
<path d="M8.886 7.01261C9.65591 7.07166 10.4053 7.30774 11.0827 7.70401C11.6755 8.05084 12.2019 8.51354 12.6339 9.0673L12.8126 9.31046L12.8792 9.41691C13.1839 9.95999 13.0613 10.6728 12.5773 11.0605C12.0933 11.448 11.4202 11.3727 11.0198 10.9062L10.9432 10.8075L10.842 10.6708C10.5973 10.3571 10.2997 10.0948 9.96385 9.89835C9.58026 9.67391 9.15603 9.54026 8.72004 9.50675C8.28395 9.4733 7.84574 9.5404 7.4361 9.70401C7.02654 9.86763 6.65456 10.124 6.34548 10.455H6.34457L3.82866 13.1484L3.82957 13.1493C3.27414 13.7652 2.96639 14.59 2.97331 15.4462C2.98026 16.3024 3.30069 17.122 3.86605 17.7275C4.43142 18.3329 5.1967 18.6761 5.99622 18.6835C6.79573 18.6909 7.56589 18.3614 8.14099 17.7665L9.56901 16.2382C10.0248 15.75 10.7637 15.75 11.2195 16.2382C11.6751 16.7264 11.6753 17.5177 11.2195 18.0058L9.77692 19.5497L9.76324 19.5653C8.74792 20.6155 7.38767 21.1966 5.97616 21.1835C4.56455 21.1704 3.21373 20.564 2.21553 19.495C1.21735 18.426 0.651139 16.9794 0.638872 15.4677C0.626696 13.9561 1.16925 12.4993 2.14987 11.412L2.16446 11.3974L4.69405 8.68741L4.90378 8.47452C5.40496 7.99238 5.98715 7.61505 6.61996 7.36222C7.34315 7.07331 8.1161 6.95362 8.886 7.01261ZM14.4075 0.741124C15.8189 0.754293 17.1691 1.36081 18.1672 2.4296C19.1654 3.49859 19.7316 4.94522 19.7439 6.45694C19.7553 7.87402 19.2791 9.24218 18.4116 10.3036L18.2329 10.5126L15.6887 13.2372C15.143 13.8218 14.486 14.2735 13.7628 14.5624C13.0395 14.8513 12.2667 14.9711 11.4967 14.912C10.7267 14.8529 9.97745 14.617 9.3 14.2206C8.70732 13.8738 8.1817 13.411 7.74979 12.8573L7.57015 12.6142L7.50358 12.5077C7.19909 11.9647 7.32165 11.2518 7.80541 10.8642C8.28931 10.4765 8.9625 10.5522 9.36292 11.0185L9.43952 11.1171L9.54165 11.2538C9.78632 11.5675 10.084 11.8298 10.4198 12.0263C10.8035 12.2507 11.2276 12.3844 11.6636 12.4179C12.0998 12.4513 12.5379 12.3843 12.9476 12.2206C13.3571 12.057 13.7291 11.8007 14.0382 11.4696L16.5678 8.75968C17.1144 8.1455 17.4163 7.32744 17.4094 6.47843C17.4025 5.6222 17.0821 4.80265 16.5167 4.19718C15.9514 3.59196 15.1867 3.24866 14.3874 3.24112C13.5935 3.23374 12.8283 3.55849 12.2545 4.14542L10.8037 5.68937L9.98118 4.80265L9.15774 3.9169L10.6086 2.37198L10.6204 2.35929L10.8146 2.16788C11.8059 1.23875 13.0841 0.728809 14.4075 0.741124ZM10.8037 5.68937C10.3466 6.17605 9.60769 6.17392 9.15318 5.68448C8.69876 5.19498 8.70079 4.40365 9.15774 3.9169L10.8037 5.68937Z" fill="#371DCD"/>
</svg>
