<svg width="21" height="21" viewBox="0 0 21 21" fill="none" xmlns="http://www.w3.org/2000/svg">
<path d="M0.171875 19.6111V17.6111C0.171875 16.2187 0.725395 14.8837 1.70996 13.8992C2.69453 12.9146 4.02949 12.3611 5.42188 12.3611H8.72168L8.84961 12.3679C9.47995 12.4319 9.97168 12.9639 9.97168 13.6111C9.97168 14.2583 9.47995 14.7902 8.84961 14.8542L8.72168 14.8611H5.42188C4.69253 14.8611 3.99326 15.151 3.47754 15.6667C2.96181 16.1825 2.67188 16.8817 2.67188 17.6111V19.6111C2.67188 20.3014 2.11223 20.8611 1.42188 20.8611C0.731519 20.8611 0.171875 20.3014 0.171875 19.6111ZM12.6719 18.3611H18.1719V15.8611H12.6719V18.3611ZM11.1719 5.61108C11.1719 4.0923 9.94066 2.86108 8.42188 2.86108C6.90309 2.86108 5.67188 4.0923 5.67188 5.61108C5.67188 7.12987 6.90309 8.36108 8.42188 8.36108C9.94066 8.36108 11.1719 7.12987 11.1719 5.61108ZM16.1719 12.6111C16.1719 12.4122 16.0928 12.2215 15.9521 12.0808C15.8468 11.9754 15.7133 11.9046 15.5693 11.8757L15.4219 11.8611C15.223 11.8611 15.0323 11.9402 14.8916 12.0808C14.7509 12.2215 14.6719 12.4122 14.6719 12.6111V13.3611H16.1719V12.6111ZM18.6719 13.3679C19.7892 13.4445 20.6719 14.3738 20.6719 15.5105V18.7117C20.6719 19.8985 19.7093 20.8611 18.5225 20.8611H12.3213C11.1344 20.8611 10.1719 19.8985 10.1719 18.7117V15.5105C10.1719 14.3738 11.0546 13.4445 12.1719 13.3679V12.6111C12.1719 11.7491 12.5145 10.9227 13.124 10.3132C13.7335 9.70374 14.5599 9.36108 15.4219 9.36108L15.583 9.36499C16.3863 9.40483 17.1483 9.74183 17.7197 10.3132C18.3292 10.9227 18.6719 11.7491 18.6719 12.6111V13.3679ZM13.6719 5.61108C13.6719 8.51058 11.3214 10.8611 8.42188 10.8611C5.52238 10.8611 3.17188 8.51058 3.17188 5.61108C3.17188 2.71159 5.52238 0.361084 8.42188 0.361084C11.3214 0.361084 13.6719 2.71159 13.6719 5.61108Z" fill="white"/>
</svg>
