<svg width="20" height="21" viewBox="0 0 20 21" fill="none" xmlns="http://www.w3.org/2000/svg">
<path d="M0.222656 19.25V17.25C0.222656 15.8576 0.739519 14.5227 1.65888 13.5381C2.57824 12.5535 3.8248 12 5.12497 12H8.20625L8.32571 12.0068C8.9143 12.0708 9.37347 12.6028 9.37347 13.25C9.37347 13.8972 8.9143 14.4292 8.32571 14.4932L8.20625 14.5H5.12497C4.44393 14.5 3.79097 14.7899 3.3094 15.3057C2.82783 15.8214 2.55709 16.5207 2.55709 17.25V19.25C2.55709 19.9404 2.03451 20.5 1.38987 20.5C0.745238 20.5 0.222656 19.9404 0.222656 19.25ZM11.8948 18H17.0306V15.5H11.8948V18ZM10.4942 5.25C10.4942 3.73122 9.3445 2.5 7.9263 2.5C6.5081 2.5 5.35842 3.73122 5.35842 5.25C5.35842 6.76878 6.5081 8 7.9263 8C9.3445 8 10.4942 6.76878 10.4942 5.25ZM15.1631 12.25C15.1631 12.0511 15.0892 11.8604 14.9579 11.7197C14.8595 11.6143 14.7349 11.5435 14.6004 11.5146L14.4627 11.5C14.277 11.5 14.0989 11.5791 13.9676 11.7197C13.8362 11.8604 13.7624 12.0511 13.7624 12.25V13H15.1631V12.25ZM17.4975 13.0068C18.5408 13.0834 19.365 14.0127 19.365 15.1494V18.3506C19.365 19.5374 18.4662 20.5 17.358 20.5H11.5675C10.4592 20.5 9.5604 19.5374 9.5604 18.3506V15.1494C9.5604 14.0127 10.3847 13.0834 11.428 13.0068V12.25C11.428 11.388 11.7479 10.5616 12.317 9.95215C12.8862 9.34266 13.6579 9 14.4627 9L14.6132 9.00391C15.3633 9.04375 16.0748 9.38074 16.6084 9.95215C17.1775 10.5616 17.4975 11.388 17.4975 12.25V13.0068ZM12.8286 5.25C12.8286 8.1495 10.6338 10.5 7.9263 10.5C5.21882 10.5 3.02398 8.14949 3.02398 5.25C3.02398 2.3505 5.21882 0 7.9263 0C10.6338 0 12.8286 2.3505 12.8286 5.25Z" fill="#371DCD"/>
</svg>
