<svg width="91" height="91" viewBox="0 0 91 91" fill="none" xmlns="http://www.w3.org/2000/svg">
<path d="M90.6373 16.6449C90.6373 7.46762 83.0772 0 73.7823 0C64.4875 0 56.9273 7.46762 56.9273 16.6449C56.9273 25.8223 64.4892 33.2899 73.7823 33.2899C75.9392 33.2899 77.9956 32.873 79.8938 32.14C82.2771 38.1988 85.806 51.384 78.3378 64.3691C72.2315 74.9855 59.6868 81.051 45.3547 80.9485L45.3513 88.5556C45.462 88.5556 46.3812 88.5556 46.4919 88.5556C63.5239 88.5556 77.5632 81.12 85.0366 68.1248C94.8625 51.0394 89.2244 34.1187 86.3712 27.6732C89.0167 24.7329 90.6373 20.8764 90.6373 16.6433V16.6449ZM64.6305 16.6449C64.6305 11.6621 68.7365 7.60715 73.7823 7.60715C78.8281 7.60715 82.9342 11.6621 82.9342 16.6449C82.9342 21.6278 78.8298 25.6827 73.7823 25.6827C68.7348 25.6827 64.6305 21.6295 64.6305 16.6449Z" fill="#361BD0"/>
<path d="M0.734528 74.703C0.928597 83.8787 8.64707 91.1883 17.9385 90.9967C27.23 90.805 34.6318 83.1827 34.4377 74.0054C34.2436 64.8297 26.5252 57.5201 17.232 57.7118C15.0752 57.7572 13.0272 58.2161 11.1461 58.9878C8.63345 52.9794 4.82698 39.8715 12.0177 26.7335C17.8977 15.9927 31.0177 9.69007 45.3498 9.49506V1.88623C45.2391 1.88791 43.4551 1.88959 43.3444 1.89127C26.3158 2.24431 12.4382 9.96746 5.24066 23.1156C-4.22102 40.3994 1.77467 57.2024 4.764 63.5857C2.18153 66.5798 0.642601 70.4699 0.732826 74.703H0.734528ZM26.7346 74.1651C26.8401 79.1463 22.8209 83.2853 17.7768 83.3895C12.7327 83.4937 8.54152 79.5246 8.43597 74.5433C8.33043 69.5604 12.348 65.4232 17.3938 65.3189C22.4395 65.2147 26.629 69.1822 26.7346 74.1651Z" fill="#361BD0"/>
<path d="M45.3497 59.7947C54.0266 59.7947 61.0607 52.8483 61.0607 44.2795C61.0607 35.7107 54.0266 28.7643 45.3497 28.7643C36.6727 28.7643 29.6387 35.7107 29.6387 44.2795C29.6387 52.8483 36.6727 59.7947 45.3497 59.7947Z" fill="#361BD0"/>
</svg>
