<svg width="17" height="22" viewBox="0 0 17 22" fill="none" xmlns="http://www.w3.org/2000/svg">
<path d="M13.7115 20.1465V18.1465C13.7115 17.4172 13.4408 16.7179 12.9592 16.2022C12.5378 15.7509 11.9851 15.4727 11.3971 15.4102L11.1436 15.3965H5.54099C4.85995 15.3965 4.20699 15.6865 3.72542 16.2022C3.24385 16.7179 2.97311 17.4172 2.97311 18.1465V20.1465C2.97311 20.8369 2.45053 21.3965 1.80589 21.3965C1.16125 21.3965 0.638672 20.8369 0.638672 20.1465V18.1465C0.638672 16.7542 1.15553 15.4192 2.0749 14.4346C2.99426 13.4501 4.24081 12.8965 5.54099 12.8965H11.1436L11.3871 12.9034C12.5986 12.9679 13.7479 13.5117 14.6097 14.4346C15.5291 15.4192 16.046 16.7542 16.046 18.1465V20.1465C16.046 20.8369 15.5234 21.3965 14.8787 21.3965C14.2341 21.3965 13.7115 20.8369 13.7115 20.1465ZM10.9102 6.14655C10.9102 4.62776 9.76052 3.39655 8.34231 3.39655C6.92411 3.39655 5.77443 4.62776 5.77443 6.14655C5.77443 7.66533 6.92411 8.89655 8.34231 8.89655C9.76052 8.89655 10.9102 7.66533 10.9102 6.14655ZM13.2446 6.14655C13.2446 9.04604 11.0498 11.3965 8.34231 11.3965C5.63484 11.3965 3.44 9.04604 3.44 6.14655C3.44 3.24705 5.63484 0.896545 8.34231 0.896545C11.0498 0.896545 13.2446 3.24705 13.2446 6.14655Z" fill="#371DCD"/>
</svg>
