<svg width="27" height="27" viewBox="0 0 27 27" fill="none" xmlns="http://www.w3.org/2000/svg">
<path d="M23.2763 13.4572C23.2763 8.04437 18.8886 3.6562 13.4758 3.65609C8.06286 3.65609 3.67465 8.0443 3.67465 13.4572C3.67475 18.87 8.06292 23.2577 13.4758 23.2577C18.8885 23.2576 23.2762 18.8699 23.2763 13.4572ZM12.0056 17.9652V14.9273H8.96714C8.15527 14.9273 7.49711 14.269 7.497 13.4572C7.497 12.6453 8.15521 11.9871 8.96714 11.9871H12.0056V8.94859C12.0056 8.13665 12.6638 7.47845 13.4758 7.47845C14.2876 7.47855 14.9459 8.13672 14.9459 8.94859V11.9871H17.9838L18.1342 11.9945C18.8756 12.0698 19.4539 12.696 19.4539 13.4572C19.4538 14.2183 18.8755 14.844 18.1342 14.9193L17.9838 14.9273H14.9459V17.9652C14.9459 18.7771 14.2876 19.4353 13.4758 19.4354C12.6638 19.4354 12.0056 18.7772 12.0056 17.9652ZM26.2166 13.4572C26.2164 20.4938 20.5124 26.1979 13.4758 26.198C6.43905 26.198 0.734479 20.4939 0.734375 13.4572C0.734375 6.42043 6.43899 0.71582 13.4758 0.71582C20.5124 0.715924 26.2166 6.4205 26.2166 13.4572Z" fill="white"/>
</svg>
