<svg width="23" height="20" viewBox="0 0 23 20" fill="none" xmlns="http://www.w3.org/2000/svg">
<path d="M18.4619 17.5012C19.1522 17.5012 19.7117 18.061 19.7119 18.7512C19.7119 19.4416 19.1523 20.0012 18.4619 20.0012H5.07033C4.38003 20.0012 3.82033 19.4415 3.82033 18.7512C3.82052 18.0611 4.38014 17.5013 5.07033 17.5012H18.4619ZM11.8819 0.294189C12.1124 0.309627 12.3376 0.370911 12.544 0.474854L12.6455 0.530518L12.7432 0.593018C12.9337 0.723537 13.096 0.89088 13.2207 1.08521L13.2803 1.18481L13.291 1.20532L15.9385 6.22974L19.7373 2.97583L19.7617 2.95532C20.0455 2.7245 20.3955 2.58899 20.7608 2.56958L20.8975 2.5686C21.1702 2.57574 21.4371 2.64742 21.6768 2.77759L21.7949 2.84692L21.9063 2.92603C22.1224 3.09234 22.296 3.30764 22.4131 3.55396L22.4668 3.67993L22.5108 3.80981C22.6003 4.11517 22.6044 4.44047 22.5205 4.74927L22.5186 4.75415L19.8076 14.5559C19.6799 15.0181 19.4048 15.426 19.0244 15.718C18.6438 16.0102 18.1781 16.1702 17.6983 16.1741H5.83693C5.35664 16.1707 4.88992 16.0113 4.50881 15.719C4.17535 15.4632 3.92281 15.1182 3.77932 14.7258L3.72463 14.5549L1.01467 4.75513L1.01369 4.75024C0.917783 4.39727 0.936083 4.02267 1.06643 3.68091L1.12014 3.55493C1.25675 3.26745 1.47097 3.0224 1.73928 2.8479L1.85647 2.77759C2.09631 2.64735 2.36391 2.57664 2.63674 2.56958L2.77346 2.57056L2.9092 2.58325C3.17965 2.6192 3.43751 2.71942 3.66213 2.87427L3.7715 2.9563L3.7969 2.97681L7.59377 6.23071L10.2412 1.20532L10.252 1.18481C10.4011 0.913908 10.6205 0.687892 10.8867 0.530518L10.9883 0.474854C11.2291 0.353485 11.4959 0.290283 11.7666 0.290283L11.8819 0.294189ZM9.6299 7.73169C9.62751 7.73623 9.62454 7.74085 9.62209 7.74536C9.46676 8.03168 9.25003 8.2803 8.98732 8.4729C8.72466 8.66544 8.42229 8.79761 8.10256 8.85962C7.78288 8.92156 7.45325 8.91171 7.13772 8.8313C6.90109 8.77097 6.67696 8.67157 6.47365 8.53833L6.27736 8.3938C6.27167 8.38909 6.2654 8.38494 6.25979 8.38013L4.09865 6.52856L6.07522 13.6741H17.458L19.4346 6.52563L17.2725 8.37915L17.2559 8.39282C17.0048 8.60033 16.7102 8.74988 16.3946 8.83032C16.079 8.91072 15.7494 8.92065 15.4297 8.85864C15.11 8.79662 14.8076 8.66451 14.5449 8.47192C14.3479 8.3274 14.1769 8.15119 14.0381 7.95142L13.9102 7.74438C13.9078 7.73997 13.9057 7.73516 13.9033 7.73071L11.7656 3.67407L9.6299 7.73169Z" fill="white"/>
</svg>
