<svg width="21" height="20" viewBox="0 0 21 20" fill="none" xmlns="http://www.w3.org/2000/svg">
<path d="M16.988 17.209C17.6325 17.209 18.155 17.7689 18.1552 18.459C18.1552 19.1494 17.6326 19.709 16.988 19.709H4.48322C3.83862 19.709 3.316 19.1494 3.316 18.459C3.31618 17.7689 3.83873 17.2091 4.48322 17.209H16.988ZM10.8436 0.00201416C11.0589 0.0174516 11.2692 0.0787355 11.4619 0.182678L11.5567 0.238342L11.6479 0.300842C11.8258 0.431362 11.9774 0.598705 12.0938 0.79303L12.1495 0.892639L12.1595 0.913147L14.6316 5.93756L18.1789 2.68365L18.2017 2.66315C18.4667 2.43232 18.7934 2.29682 19.1345 2.2774L19.2622 2.27643C19.5168 2.28356 19.7661 2.35524 19.9899 2.48541L20.1002 2.55475L20.2042 2.63385C20.406 2.80016 20.5681 3.01546 20.6775 3.26178L20.7276 3.38776L20.7687 3.51764C20.8522 3.82299 20.8561 4.1483 20.7778 4.45709L20.7759 4.46198L18.2445 14.2637C18.1252 14.7259 17.8684 15.1338 17.5132 15.4258C17.1578 15.7181 16.723 15.8781 16.2749 15.8819H5.19905C4.75057 15.8785 4.31475 15.7191 3.95888 15.4268C3.6475 15.1711 3.41169 14.826 3.2777 14.4337L3.22663 14.2628L0.69614 4.46295L0.695228 4.45807C0.605671 4.10509 0.622759 3.73049 0.74447 3.38873L0.794624 3.26276C0.922185 2.97527 1.12222 2.73023 1.37276 2.55573L1.48219 2.48541C1.70615 2.35517 1.95602 2.28446 2.21079 2.2774L2.33845 2.27838L2.46521 2.29108C2.71774 2.32702 2.95853 2.42724 3.16827 2.58209L3.2704 2.66412L3.29411 2.68463L6.83954 5.93854L9.31167 0.913147L9.3217 0.892639C9.46098 0.621733 9.66584 0.395717 9.91443 0.238342L10.0093 0.182678C10.2341 0.0613101 10.4833 -0.00189209 10.736 -0.00189209L10.8436 0.00201416ZM8.74083 7.43951C8.7386 7.44405 8.73582 7.44868 8.73353 7.45319C8.58849 7.73951 8.38611 7.98812 8.14081 8.18073C7.89553 8.37326 7.61319 8.50544 7.31463 8.56744C7.01613 8.62938 6.70833 8.61954 6.41369 8.53912C6.19273 8.47879 5.98345 8.3794 5.7936 8.24615L5.61031 8.10162C5.60499 8.09692 5.59914 8.09276 5.5939 8.08795L3.57589 6.23639L5.42155 13.3819H16.0505L17.8962 6.23346L15.8773 8.08698L15.8618 8.10065C15.6273 8.30815 15.3522 8.4577 15.0575 8.53815C14.7628 8.61854 14.4551 8.62847 14.1565 8.56647C13.858 8.50444 13.5757 8.37234 13.3304 8.17975C13.1463 8.03523 12.9867 7.85901 12.8571 7.65924L12.7376 7.45221C12.7354 7.44779 12.7334 7.44298 12.7313 7.43854L10.7351 3.3819L8.74083 7.43951Z" fill="#371DCD"/>
</svg>
