<svg width="31" height="31" viewBox="0 0 31 31" fill="none" xmlns="http://www.w3.org/2000/svg">
<path d="M30.4259 13.6789C30.2098 11.5668 28.2098 11.7182 26.7759 11.398C26.584 10.998 26.4675 10.4471 26.2415 10.0754C25.8766 9.57369 26.2628 9.46039 26.535 9.02512C28.9201 6.4141 26.6139 4.86553 24.5909 3.16088C22.9887 2.34988 21.9792 3.79037 20.7997 4.44702L19.0712 3.71464C18.6071 -0.175008 17.6201 -0.129342 13.9124 0.0602557C11.7655 0.285692 11.9891 2.33543 11.6196 3.77592L9.93209 4.46899C8.75598 3.74701 7.69228 2.34179 6.07281 3.26204C3.25705 5.76207 2.02616 6.4748 4.72604 9.74652C4.43951 10.2893 4.22158 10.924 4.01115 11.4991C2.57675 11.7731 0.790084 11.672 0.388244 13.5217C0.421682 17.3611 -0.264386 18.3657 4.09359 18.9183L4.78485 20.6103C2.17318 23.8779 3.29395 24.4727 6.0878 27.0104C7.77127 28.0196 8.83669 26.5682 10.0497 25.8271L11.6744 26.4687C12.2347 30.8208 13.2085 30.1468 17.0511 30.178C19.0003 29.7324 18.7755 27.9052 19.1335 26.4884C19.7302 26.3144 20.2865 26.0496 20.8296 25.7936C22.0398 26.5531 23.1023 27.978 24.7863 26.9514C27.5468 24.5329 28.6773 23.6785 26.0489 20.5449L26.7402 18.8351C28.0345 18.5177 29.7693 18.738 30.3135 17.0998C30.5182 16.4663 30.4778 14.2633 30.4277 13.6795L30.4259 13.6789ZM25.2908 16.8952C24.8204 17.19 24.6457 18.1848 24.4312 18.7611C22.9732 21.3831 23.778 20.9958 25.3052 23.3311C25.0371 23.6883 23.9262 24.656 23.6362 24.9965L23.5451 25.0034C22.7057 24.4687 22.0156 23.6629 21.0429 23.3664C20.6394 23.2808 19.5999 23.9178 19.0395 24.1664C18.3459 24.434 17.3416 24.4993 17.0482 25.3415C16.9248 25.6826 16.7311 27.4219 16.6031 27.9248L14.1973 27.8994C13.9349 27.0028 14.0491 25.8994 13.6357 25.0288C13.3411 24.556 12.3512 24.3803 11.7735 24.1664C11.2339 23.9398 10.4072 23.3837 9.89462 23.4219C8.84476 23.6282 8.15927 24.5843 7.26161 25.0843C6.95548 24.8404 5.9454 23.775 5.59199 23.375C6.03246 22.4704 7.14227 21.7473 7.23682 20.6831C7.28986 20.4322 6.64992 19.3334 6.43949 18.8715C6.21233 18.2912 6.03707 17.3091 5.56143 16.9848C5.20283 16.653 3.32623 16.5669 2.6344 16.3813L2.65804 13.987C3.44673 13.7703 4.85288 13.7674 5.52511 13.3986C5.86065 13.1778 6.04168 12.6414 6.26134 11.9078C6.38471 11.4714 6.47119 11.25 6.68797 10.8783C6.96528 10.3801 7.3112 9.7604 7.03158 9.14825C7.02927 9.12397 5.54414 6.95631 5.53434 6.93434L7.19531 5.26206C7.90675 5.72566 9.37286 7.00718 9.85426 6.91527C10.1419 6.96382 11.1889 6.34416 11.664 6.12682C14.3927 5.44704 13.6663 4.63373 14.1719 2.31925L16.5754 2.33775C17.0378 4.59847 16.3333 5.44068 19.0407 6.07017C19.7504 6.36555 20.6319 7.08348 21.3969 6.7748C21.4338 6.77712 23.5797 5.22391 23.6114 5.2112C23.9221 5.46033 24.9403 6.53492 25.2862 6.92683C25.2701 6.96093 23.8114 8.97541 23.7988 9.01299C23.4442 9.63091 23.7953 10.2425 24.0772 10.7338C24.3263 11.1379 24.4324 11.4783 24.5725 11.9581C24.7887 12.6437 24.8872 13.2379 25.6033 13.472C25.9434 13.5957 27.6788 13.7899 28.1798 13.9183L28.1544 16.3304C27.2602 16.5934 26.1596 16.479 25.2914 16.8934L25.2908 16.8952Z" fill="white"/>
<path d="M15.4092 8.45935C6.68347 8.61484 6.68174 21.6179 15.4092 21.7752C24.135 21.6197 24.1361 8.61658 15.4092 8.45935ZM15.4098 19.53C9.62549 19.4271 9.62434 10.8068 15.4098 10.7027C21.1941 10.8056 21.1947 19.426 15.4098 19.53Z" fill="white"/>
</svg>
