<svg width="95" height="82" viewBox="0 0 95 82" fill="none" xmlns="http://www.w3.org/2000/svg">
<path d="M47.4666 59.4119H12.6839C10.3777 59.4119 8.16594 58.4339 6.53518 56.6931C4.90443 54.9524 3.98828 52.5914 3.98828 50.1296V13.0004C3.98828 10.5386 4.90443 8.17762 6.53518 6.43686C8.16594 4.69609 10.3777 3.71814 12.6839 3.71814H82.2493C84.5555 3.71814 86.7673 4.69609 88.398 6.43686C90.0288 8.17762 90.9449 10.5386 90.9449 13.0004V36.2061M64.8579 64.053L77.9014 77.9764M77.9014 77.9764L90.9449 64.053M77.9014 77.9764V50.1296M73.5536 31.565H73.5971M21.3796 31.565H21.4231M56.1623 31.565C56.1623 36.6915 52.2691 40.8473 47.4666 40.8473C42.6641 40.8473 38.7709 36.6915 38.7709 31.565C38.7709 26.4385 42.6641 22.2827 47.4666 22.2827C52.2691 22.2827 56.1623 26.4385 56.1623 31.565Z" stroke="#AEE8FF" stroke-width="7" stroke-linecap="round" stroke-linejoin="round"/>
</svg>
