<svg width="28" height="28" viewBox="0 0 28 28" fill="none" xmlns="http://www.w3.org/2000/svg">
<path d="M12.3796 5.93717C15.1918 5.60204 18.0363 6.19652 20.4789 7.62982C22.9216 9.06312 24.8279 11.2565 25.907 13.8749C26.0076 14.146 26.0076 14.4441 25.907 14.7152C25.4633 15.7909 24.8769 16.8019 24.1637 17.7213M16.4251 16.9015C15.742 17.5613 14.8272 17.9263 13.8775 17.9181C12.9279 17.9098 12.0195 17.5289 11.348 16.8574C10.6765 16.1859 10.2956 15.2775 10.2874 14.3279C10.2791 13.3783 10.6442 12.4634 11.3039 11.7803M20.5238 20.935C18.9223 21.8836 17.1355 22.4767 15.2847 22.6739C13.4338 22.8712 11.5622 22.668 9.7968 22.0781C8.03139 21.4883 6.41352 20.5256 5.05295 19.2554C3.69239 17.9852 2.62097 16.4372 1.9114 14.7164C1.81078 14.4453 1.81078 14.1472 1.9114 13.8761C2.9818 11.2803 4.86518 9.10171 7.27889 7.66718M1.83655 2.22363L25.9818 26.3689" stroke="#371DCD" stroke-width="3" stroke-linecap="round" stroke-linejoin="round"/>
</svg>
