<svg width="31" height="31" viewBox="0 0 31 31" fill="none" xmlns="http://www.w3.org/2000/svg">
<path d="M27.4239 15.2133C27.4239 8.61015 22.0709 3.2572 15.4677 3.2572C8.86454 3.2572 3.51159 8.61015 3.51159 15.2133C3.51159 21.8166 8.86454 27.1695 15.4677 27.1695C22.0709 27.1695 27.4239 21.8166 27.4239 15.2133ZM19.3061 17.9191C19.306 17.6188 19.1871 17.3307 18.9748 17.1184C18.7624 16.9059 18.4739 16.7865 18.1735 16.7865H17.0409V19.0517H18.1735C18.4739 19.0517 18.7624 18.9328 18.9748 18.7204C19.1872 18.508 19.3061 18.2195 19.3061 17.9191ZM22.4524 17.9191C22.4524 19.054 22.0019 20.1425 21.1994 20.945C20.3969 21.7475 19.3084 22.198 18.1735 22.198H17.0409V23.3312C17.0408 24.1999 16.3365 24.9044 15.4677 24.9044C14.599 24.9044 13.8947 24.1999 13.8946 23.3312V22.198H10.0563C9.18741 22.198 8.48308 21.4937 8.48308 20.6248C8.48321 19.7561 9.1875 19.0517 10.0563 19.0517H13.8946V16.7865H12.762C11.6272 16.7865 10.5386 16.3359 9.73609 15.5335C8.98376 14.7812 8.54045 13.7773 8.488 12.7196L8.48308 12.5076C8.48308 11.3727 8.93361 10.2842 9.73609 9.4817C10.5386 8.67922 11.6271 8.22868 12.762 8.22868H13.8946V7.0955C13.8947 6.22678 14.599 5.52233 15.4677 5.52233C16.3365 5.52233 17.0408 6.22678 17.0409 7.0955V8.22868H20.8792L21.0402 8.23667C21.8336 8.3172 22.4524 8.9873 22.4524 9.80186C22.4523 10.6163 21.8335 11.2859 21.0402 11.3664L20.8792 11.375H17.0409V13.6402H18.1735C19.3083 13.6402 20.3969 14.0908 21.1994 14.8932C22.0018 15.6956 22.4524 16.7843 22.4524 17.9191ZM30.5703 15.2133C30.5703 23.5542 23.8086 30.3159 15.4677 30.3159C7.12686 30.3159 0.365234 23.5542 0.365234 15.2133C0.365235 6.87246 7.12686 0.11084 15.4677 0.11084C23.8086 0.11084 30.5703 6.87246 30.5703 15.2133ZM11.635 12.6194C11.6607 12.8786 11.7749 13.1225 11.9607 13.3083C12.1731 13.5208 12.4616 13.6402 12.762 13.6402H13.8946V11.375H12.762C12.4616 11.375 12.1731 11.4938 11.9607 11.7063C11.7482 11.9187 11.6294 12.2072 11.6294 12.5076L11.635 12.6194Z" fill="#371DCD"/>
</svg>
